<svg width="38" height="38" viewBox="0 0 38 38" fill="none" xmlns="http://www.w3.org/2000/svg">
<rect x="0.5" y="0.5" width="37" height="37" rx="18.5" fill="white"/>
<rect x="0.5" y="0.5" width="37" height="37" rx="18.5" stroke="black"/>
<g clip-path="url(#clip0_3802_1749)">
<path d="M15.25 23.5C14.425 23.5 13.7575 24.175 13.7575 25C13.7575 25.825 14.425 26.5 15.25 26.5C16.075 26.5 16.75 25.825 16.75 25C16.75 24.175 16.075 23.5 15.25 23.5ZM10.75 12.25C10.75 12.6625 11.0875 13 11.5 13H12.25L14.95 18.6925L13.9375 20.5225C13.39 21.5275 14.11 22.75 15.25 22.75H23.5C23.9125 22.75 24.25 22.4125 24.25 22C24.25 21.5875 23.9125 21.25 23.5 21.25H15.25L16.075 19.75H21.6625C22.225 19.75 22.72 19.4425 22.975 18.9775L25.66 14.11C25.9375 13.615 25.5775 13 25.0075 13H13.9075L13.405 11.9275C13.285 11.665 13.015 11.5 12.73 11.5H11.5C11.0875 11.5 10.75 11.8375 10.75 12.25ZM22.75 23.5C21.925 23.5 21.2575 24.175 21.2575 25C21.2575 25.825 21.925 26.5 22.75 26.5C23.575 26.5 24.25 25.825 24.25 25C24.25 24.175 23.575 23.5 22.75 23.5Z" fill="#323232"/>
</g>
<defs>
<clipPath id="clip0_3802_1749">
<rect width="18" height="18" fill="white" transform="translate(10 10)"/>
</clipPath>
</defs>
</svg>
