<svg width="15" height="16" viewBox="0 0 15 16" fill="none" xmlns="http://www.w3.org/2000/svg">
<g clip-path="url(#clip0_2489_846)">
<path d="M15 8.4679C15 12.5957 11.6093 15.9495 7.48157 15.9495C3.35381 15.9495 0 12.5957 0 8.4679C0 4.30328 3.39066 0.986328 7.55528 0.986328C11.6462 0.986328 15 4.37699 15 8.4679ZM6.04423 2.16569C8.25553 3.7136 9.47174 5.77748 9.47174 8.50476C9.47174 11.1952 8.25553 13.2959 6.04423 14.8438C8.47666 15.4335 11.2776 14.5121 12.8993 12.1165C14.4472 9.83154 14.3735 6.80942 12.715 4.59812C10.9459 2.27625 8.18182 1.64972 6.04423 2.16569ZM8.21867 6.55144C8.14496 6.55144 8.10811 6.55144 8.07125 6.58829C7.03931 6.88313 6.00737 7.14112 4.93857 7.43596C3.64865 7.76765 2.35872 8.1362 1.10565 8.4679C1.0688 8.4679 0.995086 8.50476 0.995086 8.54161C0.995086 8.68903 0.995086 8.83645 0.995086 9.02073C3.46437 8.35734 5.89681 7.7308 8.32924 7.06741C8.29238 6.88313 8.25553 6.73571 8.21867 6.55144ZM8.47666 8.0625C6.04423 8.72589 3.61179 9.35242 1.17936 10.0158C1.21622 10.2001 1.28993 10.3475 1.32678 10.4949C1.40049 10.4949 1.43735 10.4581 1.4742 10.4581C3.6855 9.86839 5.89681 9.27871 8.14496 8.68903C8.55037 8.57847 8.55037 8.57847 8.47666 8.0625ZM1.0688 7.43596C3.35381 6.84628 5.56511 6.21974 7.81327 5.63006C7.73956 5.5195 7.66585 5.40893 7.62899 5.26151C7.59214 5.1878 7.55528 5.15095 7.44472 5.1878C6.48649 5.44579 5.52826 5.70377 4.57002 5.96176C3.50123 6.2566 2.39558 6.55144 1.32678 6.84628C1.28993 6.84628 1.21622 6.88313 1.21622 6.91999C1.14251 7.06741 1.10565 7.25168 1.0688 7.43596ZM1.69533 11.4532C1.76904 11.6006 1.84275 11.7111 1.87961 11.8217C1.91646 11.9323 1.99017 11.9323 2.06388 11.8954C2.69042 11.7111 3.31695 11.5637 3.94349 11.3794C5.30713 11.0109 6.70762 10.6423 8.07125 10.2738C8.10811 10.2738 8.21867 10.2369 8.21867 10.2001C8.25553 10.0527 8.29238 9.86839 8.36609 9.68412C6.15479 10.2369 3.94349 10.8635 1.69533 11.4532ZM6.9656 4.26643C6.81818 4.15586 6.74447 4.0453 6.63391 3.93473C6.5602 3.86102 6.48649 3.86102 6.41278 3.86102C4.97543 4.26643 3.53808 4.67183 2.06388 5.04038C2.02703 5.04038 1.95332 5.07724 1.91646 5.11409C1.8059 5.29837 1.69533 5.48264 1.58477 5.70377C3.42752 5.22466 5.1597 4.74554 6.9656 4.26643ZM2.65356 12.7799C2.65356 12.8168 2.61671 12.8168 2.61671 12.8537C2.72727 12.9642 2.83784 13.0379 2.9484 13.1485C2.98526 13.1853 3.09582 13.2222 3.13268 13.1853C4.53317 12.8168 5.93366 12.4482 7.33415 12.0797C7.37101 12.0797 7.44472 12.0428 7.44472 12.006C7.55528 11.8217 7.66585 11.6374 7.77641 11.4532L7.73956 11.4163C6.04423 11.8586 4.34889 12.3008 2.65356 12.7799ZM3.09582 3.67675C3.09582 3.7136 3.13268 3.7136 3.13268 3.75046C3.94349 3.52933 4.7543 3.3082 5.56511 3.08707V3.05021C5.34398 2.93965 5.12285 2.79222 4.90172 2.68166C4.79115 2.60795 4.71744 2.60795 4.60688 2.68166C4.4226 2.79222 4.23833 2.86593 4.09091 2.9765C3.75921 3.19763 3.42752 3.41876 3.09582 3.67675ZM6.19165 13.4433V13.4065C5.4914 13.5908 4.79115 13.775 4.09091 13.9593V13.9962C4.31204 14.1067 4.53317 14.2173 4.71744 14.3279C4.7543 14.3279 4.79115 14.3279 4.79115 14.3279C5.30713 14.1067 5.74939 13.8119 6.19165 13.4433Z" fill="white"/>
</g>
<defs>
<clipPath id="clip0_2489_846">
<rect width="15" height="15" fill="white" transform="translate(0 0.986328)"/>
</clipPath>
</defs>
</svg>
