<svg width="19" height="23" viewBox="0 0 19 23" fill="none" xmlns="http://www.w3.org/2000/svg">
<path d="M0 19.4854C0 21.3926 0.984375 22.377 2.86523 22.377H11.0918C12.9727 22.377 13.957 21.3838 13.957 19.4854V17.8594H15.4512C17.332 17.8594 18.3164 16.8662 18.3164 14.9678V8.01562C18.3164 6.85547 18.0703 6.11719 17.376 5.40527L12.999 0.94043C12.3311 0.263672 11.54 0 10.5293 0H7.22461C5.34375 0 4.35938 0.993164 4.35938 2.90039V4.51758H2.86523C0.984375 4.51758 0 5.51953 0 7.41797V19.4854ZM13.0693 10.2393L8.30566 5.40527C7.6377 4.72852 7.06641 4.54395 6.1084 4.52637V3.00586C6.1084 2.20605 6.53027 1.75781 7.37402 1.75781H11.0391V5.93262C11.0391 7.02246 11.6191 7.59375 12.7002 7.59375H16.5586V14.8535C16.5586 15.6621 16.1367 16.1104 15.293 16.1104H13.957V12.7354C13.957 11.5488 13.8076 10.9951 13.0693 10.2393ZM12.4893 5.71289V2.46973L16.1016 6.14355H12.9199C12.6123 6.14355 12.4893 6.02051 12.4893 5.71289ZM1.74902 19.3711V7.53223C1.74902 6.72363 2.1709 6.27539 3.02344 6.27539H5.7041V11.0566C5.7041 12.3311 6.32812 12.9463 7.59375 12.9463H12.208V19.3711C12.208 20.1797 11.7861 20.6279 10.9336 20.6279H3.01465C2.1709 20.6279 1.74902 20.1797 1.74902 19.3711ZM7.76074 11.4082C7.40039 11.4082 7.24219 11.2588 7.24219 10.8896V6.60938L11.9707 11.4082H7.76074Z" fill="white"/>
</svg>
