<svg width="12" height="8" viewBox="0 0 12 8" fill="none" xmlns="http://www.w3.org/2000/svg">
<path d="M6 7.19024C6.23675 7.18399 6.45321 7.10266 6.62909 6.9275L11.77 2.06053C11.9188 1.92291 12 1.74775 12 1.54131C12 1.12843 11.6483 0.796875 11.2018 0.796875C10.9853 0.796875 10.7756 0.8782 10.6201 1.02208L6.00676 5.40736L1.37993 1.02208C1.22435 0.884455 1.02142 0.796875 0.798196 0.796875C0.351747 0.796875 0 1.12843 0 1.54131C0 1.74775 0.0811725 1.92291 0.229989 2.06053L5.37768 6.9275C5.56032 7.10266 5.76325 7.19024 6 7.19024Z" fill="white"/>
</svg>
