<svg width="15" height="16" viewBox="0 0 15 16" fill="none" xmlns="http://www.w3.org/2000/svg">
<g clip-path="url(#clip0_2489_824)">
<path d="M15 8.60656C14.88 8.90656 14.64 9.02656 14.31 8.99656C13.89 8.99656 13.47 8.99656 13.05 8.99656C12.93 8.99656 12.81 8.96656 12.69 8.90656C12.51 8.81656 12.42 8.57656 12.45 8.36656C12.48 8.15656 12.66 8.00656 12.87 7.97656C12.93 7.97656 13.02 7.97656 13.08 7.97656C13.5 7.97656 13.92 7.97656 14.31 7.97656C14.64 7.97656 14.88 8.06656 15 8.36656C15 8.45656 15 8.51656 15 8.60656Z" fill="white"/>
<path d="M7.37982 15.9873C7.07982 15.8673 6.95982 15.6273 6.98982 15.2973C6.98982 14.8773 6.98982 14.4573 6.98982 14.0373C6.98982 13.9173 7.01982 13.7973 7.07982 13.6773C7.16982 13.4973 7.40982 13.4073 7.61982 13.4373C7.82982 13.4673 7.97982 13.6473 8.00982 13.8573C8.00982 13.9173 8.00982 14.0073 8.00982 14.0673C8.00982 14.4873 8.00982 14.9073 8.00982 15.2973C8.00982 15.6273 7.91982 15.8673 7.61982 15.9873C7.52982 15.9873 7.46982 15.9873 7.37982 15.9873Z" fill="white"/>
<path d="M11.2799 8.48703C11.2499 10.557 9.56991 12.267 7.49991 12.237C5.36991 12.207 3.71991 10.527 3.74991 8.45703C3.74991 6.38703 5.42991 4.70703 7.52991 4.70703C9.59991 4.73703 11.2799 6.44703 11.2799 8.48703ZM10.2299 8.48703C10.2299 6.95703 9.02991 5.75703 7.49991 5.75703C5.96991 5.75703 4.76991 6.95703 4.76991 8.48703C4.76991 10.017 5.96991 11.217 7.49991 11.217C9.02991 11.217 10.2299 10.017 10.2299 8.48703Z" fill="white"/>
<path d="M1.28998 8.99656C1.01998 8.99656 0.749985 8.99656 0.479985 8.99656C0.239985 8.99656 0.0599849 8.81656 0.0299849 8.57656C-1.50613e-05 8.36656 0.119985 8.15656 0.299985 8.03656C0.359985 8.00656 0.389985 7.97656 0.449985 7.97656C1.01998 7.97656 1.55998 7.97656 2.12998 7.97656C2.36998 7.97656 2.54998 8.18656 2.54998 8.42656C2.57998 8.66656 2.42998 8.87656 2.21998 8.96656C2.12998 8.99656 2.06998 8.99656 1.97998 8.99656C1.73998 8.99656 1.49998 8.99656 1.28998 8.99656Z" fill="white"/>
<path d="M8.00975 2.24703C8.00975 2.48703 8.00975 2.75703 8.00975 2.99703C8.00975 3.20703 7.88975 3.38703 7.67975 3.47703C7.49975 3.56703 7.31975 3.53703 7.16975 3.38703C7.04975 3.29703 6.98975 3.14703 6.98975 2.99703C6.98975 2.48703 6.98975 2.00703 6.98975 1.49703C6.98975 1.19703 7.22975 0.957031 7.49975 0.957031C7.76975 0.957031 8.00975 1.16703 8.00975 1.49703C8.00975 1.76703 8.00975 2.00703 8.00975 2.24703Z" fill="white"/>
<path d="M11.4002 11.8164C11.4602 11.8464 11.5802 11.8764 11.6702 11.9664C12.0302 12.3264 12.4202 12.6864 12.7802 13.0464C12.9902 13.2564 12.9902 13.5564 12.7802 13.7664C12.5702 13.9764 12.2702 13.9764 12.0602 13.7664C11.7002 13.4064 11.3402 13.0464 10.9802 12.6864C10.8302 12.5364 10.7702 12.3264 10.8602 12.1164C10.9802 11.9364 11.1602 11.8464 11.4002 11.8164Z" fill="white"/>
<path d="M4.14007 4.5565C4.14007 4.8265 4.05007 5.0065 3.87007 5.0965C3.69007 5.1865 3.51007 5.1865 3.36007 5.0365C3.27007 4.9765 3.21007 4.8865 3.12007 4.8265C2.82007 4.5265 2.52007 4.2265 2.22007 3.9265C1.98007 3.6865 1.98007 3.3865 2.19007 3.1765C2.40007 2.9665 2.70007 2.9965 2.91007 3.2065C3.27007 3.5665 3.60007 3.8965 3.96007 4.2565C4.05007 4.3465 4.11007 4.4965 4.14007 4.5565Z" fill="white"/>
<path d="M10.8599 4.55703C10.8899 4.49703 10.9199 4.34703 11.0099 4.25703C11.3699 3.89703 11.7299 3.53703 12.0899 3.17703C12.2999 2.96703 12.5999 2.96703 12.8099 3.17703C12.9899 3.38703 13.0199 3.68703 12.8099 3.89703C12.4499 4.25703 12.0899 4.61703 11.7299 4.97703C11.5799 5.12703 11.3699 5.18703 11.1599 5.06703C10.9799 5.00703 10.8899 4.85703 10.8599 4.55703Z" fill="white"/>
<path d="M4.13992 12.4176C4.10992 12.4776 4.07992 12.6276 3.98992 12.7176C3.62992 13.0776 3.26992 13.4376 2.90992 13.7976C2.69992 14.0076 2.39992 14.0076 2.18992 13.7976C2.00992 13.5876 1.97992 13.2876 2.18992 13.0776C2.54992 12.7176 2.90992 12.3576 3.26992 11.9976C3.41992 11.8476 3.62992 11.7876 3.83992 11.9076C4.01992 11.9676 4.10992 12.1176 4.13992 12.4176Z" fill="white"/>
</g>
<defs>
<clipPath id="clip0_2489_824">
<rect width="15" height="15" fill="white" transform="translate(0 0.986328)"/>
</clipPath>
</defs>
</svg>
