<svg width="10" height="13" viewBox="0 0 10 13" fill="none" xmlns="http://www.w3.org/2000/svg">
<path d="M5 0C4.57474 0 4.27835 0.314903 4.27835 0.766719V9.22117L4.33634 10.7067L2.66108 8.72143L1.19845 7.1743C1.06959 7.03739 0.889175 6.94839 0.68299 6.94839C0.289948 6.94839 0 7.2633 0 7.69458C0 7.8931 0.0708763 8.07794 0.225515 8.24223L4.46521 12.7604C4.60696 12.9179 4.80026 13 5 13C5.1933 13 5.3866 12.9179 5.52835 12.7604L9.77448 8.24223C9.92912 8.07794 10 7.8931 10 7.69458C10 7.2633 9.70361 6.94839 9.31057 6.94839C9.11082 6.94839 8.93041 7.03739 8.80155 7.1743L7.33247 8.72143L5.66366 10.6998L5.71521 9.22117V0.766719C5.71521 0.314903 5.41881 0 5 0Z" fill="white"/>
</svg>
