<svg width="12" height="13" viewBox="0 0 12 13" fill="none" xmlns="http://www.w3.org/2000/svg">
<path d="M8.13309 7.96063C7.39372 7.81276 6.62477 7.66488 5.85582 7.51701C5.79667 7.66488 5.73752 7.84233 5.70795 7.99021C5.47135 8.87745 5.23475 9.79427 5.02773 10.6815C4.96858 10.8885 4.90943 10.9773 4.76155 10.9477C4.61368 10.9181 4.55453 10.7998 4.61368 10.5928C4.87985 9.55767 5.14603 8.52255 5.4122 7.51701C5.4122 7.48743 5.4122 7.48743 5.44177 7.45786C4.5841 7.28041 3.72643 7.13253 2.83919 6.95509C2.78004 7.19168 2.69131 7.39871 2.63216 7.63531C2.48429 8.2268 2.33641 8.8183 2.18854 9.4098C2.15896 9.55767 2.07024 9.61682 1.92237 9.58725C1.80407 9.55767 1.74492 9.43937 1.77449 9.2915C1.77449 9.26192 1.77449 9.23235 1.80407 9.20278C2.01109 8.4634 2.18854 7.72403 2.39556 7.01424C2.39556 6.95509 2.42514 6.92551 2.42514 6.86636C2.15896 6.80721 1.89279 6.77764 1.62662 6.71849C1.15342 6.62976 0.680222 6.54104 0.207024 6.45231C0.0591497 6.39316 0 6.33401 0 6.21571C0.0295749 6.06784 0.118299 6.00869 0.295749 6.00869C1.00555 6.12699 1.68577 6.27486 2.36599 6.39316C2.42514 6.39316 2.48429 6.42274 2.54344 6.42274C2.78004 5.83124 3.04621 5.21017 3.28281 4.61867C3.01664 4.55952 2.75046 4.50037 2.45471 4.4708C2.12939 4.41165 1.77449 4.3525 1.41959 4.29335C1.24214 4.26377 1.18299 4.20462 1.21257 4.05675C1.24214 3.90887 1.33087 3.84973 1.50832 3.84973C2.12939 3.96802 2.72089 4.05675 3.34196 4.17505C3.46026 4.20462 3.51941 4.17505 3.57856 4.05675C3.84473 3.58355 4.11091 3.11035 4.3475 2.66673C4.37708 2.63716 4.40665 2.57801 4.43623 2.51886C4.17006 2.43013 3.87431 2.34141 3.60813 2.28226C3.16451 2.16396 2.72089 2.01608 2.24769 1.89778C2.09982 1.86821 2.04067 1.74991 2.07024 1.63161C2.09982 1.51331 2.21811 1.45416 2.36599 1.51331C2.86876 1.63161 3.34196 1.77948 3.81516 1.92736C4.05176 1.98651 4.28835 2.07523 4.52495 2.13438C4.61368 2.16396 4.67283 2.13438 4.7024 2.07523C5.14603 1.48374 5.58965 0.892239 6.06285 0.300742C6.18115 0.152867 6.26987 0.123292 6.38817 0.212017C6.50647 0.300742 6.50647 0.419041 6.38817 0.59649C5.97412 1.12884 5.56007 1.66119 5.14603 2.22311C5.11645 2.25268 5.11645 2.28226 5.08688 2.31183C5.82625 2.54843 6.53604 2.75546 7.27542 2.99205C7.33457 2.9329 7.36414 2.87375 7.39372 2.8146C7.77819 2.25268 8.16266 1.69076 8.54714 1.12884C8.66543 0.980963 8.75416 0.951388 8.84288 1.04011C8.96118 1.12884 8.96118 1.27671 8.87246 1.39501C8.51756 1.92736 8.16266 2.45971 7.80776 2.99205C7.77819 3.02163 7.74861 3.08078 7.71904 3.13993C8.31054 3.34695 8.90203 3.55398 9.49353 3.761C9.52311 3.67228 9.58226 3.58355 9.61183 3.49483C9.878 2.9329 10.1442 2.40056 10.4104 1.83863C10.4991 1.69076 10.5878 1.63161 10.7061 1.69076C10.8244 1.74991 10.854 1.86821 10.7948 2.04566C10.5287 2.60758 10.2329 3.1695 9.96673 3.761C9.93715 3.82015 9.93715 3.84973 9.90758 3.90887C10.2625 4.05675 10.6174 4.17505 10.9723 4.32292C11.2384 4.44122 11.5342 4.55952 11.8004 4.67782C11.9778 4.76655 12.037 4.8257 11.9778 4.94399C11.9187 5.09187 11.8004 5.12144 11.6229 5.06229C11.0314 4.8257 10.4399 4.5891 9.84843 4.38207C9.81885 4.3525 9.7597 4.3525 9.70055 4.32292C9.52311 4.76655 9.37523 5.21017 9.19778 5.65379C9.58226 5.77209 9.93715 5.86082 10.2625 5.94954C10.7357 6.09741 11.2089 6.21571 11.6821 6.36359C11.8299 6.42274 11.8891 6.51146 11.8595 6.65934C11.8299 6.77764 11.7116 6.83679 11.5638 6.77764C10.9427 6.60019 10.3216 6.42274 9.70055 6.24529C9.49353 6.18614 9.28651 6.12699 9.04991 6.06784C8.90203 6.60019 8.75416 7.13253 8.60629 7.66488C8.90203 7.72403 9.16821 7.78318 9.43438 7.84233C9.9963 7.96063 10.5582 8.07893 11.1201 8.19723C11.2976 8.2268 11.3863 8.31553 11.3567 8.43383C11.3272 8.5817 11.2089 8.64085 11.0314 8.61128C10.6174 8.52255 10.1738 8.43383 9.7597 8.3451C9.40481 8.25638 9.02033 8.19723 8.66543 8.10851C8.63586 8.10851 8.57671 8.1085 8.51756 8.07893C8.42884 8.4634 8.36969 8.84788 8.28096 9.23235C8.19224 9.883 8.07394 10.5041 7.98521 11.1547C7.98521 11.1843 7.98521 11.2434 7.95564 11.273C7.92606 11.3913 7.80776 11.48 7.68946 11.4505C7.57116 11.4209 7.51201 11.3617 7.54159 11.2139C7.60074 10.7407 7.68946 10.297 7.74861 9.82385C7.92606 9.1732 8.04436 8.5817 8.13309 7.96063ZM5.56007 7.01424C5.7671 6.42274 5.97412 5.86082 6.18115 5.26932C5.35305 5.09187 4.52495 4.88485 3.69686 4.7074C3.46026 5.32847 3.19409 5.91997 2.95749 6.51146C3.87431 6.68891 4.7024 6.83679 5.56007 7.01424ZM6.3586 4.85527C6.59519 4.3525 6.83179 3.84973 7.06839 3.37653C7.03882 3.37653 7.03882 3.34695 7.03882 3.34695C6.32902 3.13993 5.6488 2.90333 4.939 2.69631C4.85028 2.66673 4.8207 2.69631 4.79113 2.75546C4.64325 2.99205 4.49538 3.25823 4.3475 3.49483C4.19963 3.761 4.05176 4.02717 3.90388 4.29335C4.76155 4.50037 5.56007 4.67782 6.3586 4.85527ZM8.69501 5.89039C8.01479 5.71294 7.33457 5.53549 6.62477 5.35804C6.41775 5.94954 6.21072 6.51146 6.0037 7.07338C6.77264 7.22126 7.51201 7.36913 8.25139 7.51701C8.36969 6.98466 8.51756 6.45231 8.69501 5.89039ZM7.48244 3.49483C7.24584 3.9976 7.00924 4.4708 6.77264 4.94399C7.48244 5.12144 8.13309 5.29889 8.81331 5.47634C8.99076 5.03272 9.16821 4.5891 9.31608 4.1159C8.72458 3.93845 8.13309 3.73143 7.48244 3.49483Z" fill="white"/>
</svg>
