<svg width="18" height="18" viewBox="0 0 18 18" fill="none" xmlns="http://www.w3.org/2000/svg">
<path d="M1.86192 17.5879C2.29438 17.5879 2.65477 17.4086 3.13872 17.1555L16.1642 10.6803C17.0806 10.2268 17.4307 9.74174 17.4307 9.08789C17.4307 8.43404 17.0806 7.95948 16.1642 7.49546L3.13872 1.02027C2.64447 0.777717 2.29438 0.587891 1.85162 0.587891C1.01758 0.587891 0.430664 1.24174 0.430664 2.27524L0.440961 15.9005C0.440961 16.9446 1.02788 17.5879 1.86192 17.5879ZM2.59299 15.0147C2.54151 15.0147 2.50032 14.962 2.50032 14.8881L2.50032 3.28764C2.50032 3.20328 2.54151 3.16109 2.59299 3.16109C2.63418 3.16109 2.67536 3.18218 2.71655 3.21382L14.527 8.97189C14.5682 9.00352 14.6093 9.03516 14.6093 9.08789C14.6093 9.14062 14.5682 9.1828 14.527 9.2039L2.71655 14.962C2.67536 14.9936 2.63418 15.0147 2.59299 15.0147Z" fill="white"/>
</svg>
