<svg width="12" height="11" viewBox="0 0 12 11" fill="none" xmlns="http://www.w3.org/2000/svg">
<path d="M7.19022 6.87688V7.79431H9.20861C10.5599 7.79431 11.3862 6.9411 11.3862 5.77596C11.3862 4.80349 10.8655 4.01908 10.0091 3.6567C10.0134 1.5833 8.61041 0.0878906 6.8072 0.0878906C5.66244 0.0878906 4.80172 0.716331 4.26377 1.54661C3.23521 1.27596 2.0216 2.10624 1.97856 3.39982C0.993038 3.57872 0.38623 4.45028 0.38623 5.56037C0.38623 6.79431 1.26847 7.79431 2.70157 7.79431H4.56503V6.87688H2.70157C1.76338 6.87688 1.25556 6.28055 1.25556 5.54202C1.25556 4.68422 1.7849 4.0833 2.66283 4.0833C2.72739 4.0833 2.75321 4.04661 2.74891 3.98239C2.72308 2.61541 3.63975 2.17505 4.56503 2.46404C4.62097 2.4778 4.6554 2.46862 4.68122 2.41817C5.09437 1.61541 5.7356 1.00073 6.8029 1.00073C8.15423 1.00073 9.11823 2.14294 9.18279 3.4778C9.1957 3.72092 9.17848 3.99156 9.16127 4.21174C9.15266 4.27596 9.17848 4.31266 9.23443 4.32184C10.022 4.48239 10.5169 4.96862 10.5169 5.73468C10.5169 6.4044 10.0779 6.87688 9.19139 6.87688H7.19022ZM5.87762 10.0879C6.10141 10.0879 6.28216 9.89523 6.28216 9.66587V5.4411L6.23913 4.62459L6.51456 4.96404L7.11276 5.60624C7.18592 5.68881 7.2849 5.73468 7.38388 5.73468C7.58185 5.73468 7.74539 5.57872 7.74539 5.36312C7.74539 5.25303 7.70665 5.16587 7.62919 5.09248L6.18318 3.64294C6.07559 3.53743 5.98521 3.49615 5.87762 3.49615C5.77434 3.49615 5.67966 3.53743 5.57207 3.64294L4.12606 5.09248C4.04859 5.16587 4.01416 5.25303 4.01416 5.36312C4.01416 5.57872 4.1734 5.73468 4.37136 5.73468C4.47035 5.73468 4.56933 5.68881 4.64249 5.60624L5.24069 4.96404L5.52042 4.62459L5.47308 5.4411V9.66587C5.47308 9.89523 5.65814 10.0879 5.87762 10.0879Z" fill="white"/>
</svg>
