<svg width="16" height="20" viewBox="0 0 16 20" fill="none" xmlns="http://www.w3.org/2000/svg">
<path d="M7.74854 9.61328C8.00342 9.61328 8.20557 9.53418 8.36377 9.36719L11.9673 5.7373C12.1606 5.54395 12.2485 5.33301 12.2485 5.08691C12.2485 4.84961 12.1519 4.62109 11.9673 4.44531L8.36377 0.780273C8.20557 0.604492 8.00342 0.516602 7.74854 0.516602C7.27393 0.516602 6.896 0.912109 6.896 1.39551C6.896 1.63281 6.98389 1.82617 7.1333 1.99316L9.23389 4.0498C8.8208 3.98828 8.39893 3.95312 7.97705 3.95312C3.62646 3.95312 0.145996 7.43359 0.145996 11.793C0.145996 16.1523 3.65283 19.6592 8.00342 19.6592C12.3628 19.6592 15.8608 16.1523 15.8608 11.793C15.8608 11.2656 15.4917 10.8877 14.9644 10.8877C14.4546 10.8877 14.1118 11.2656 14.1118 11.793C14.1118 15.1855 11.396 17.9102 8.00342 17.9102C4.61963 17.9102 1.89502 15.1855 1.89502 11.793C1.89502 8.37402 4.59326 5.66699 7.97705 5.66699C8.54834 5.66699 9.07568 5.71094 9.5415 5.79004L7.14209 8.16309C6.98389 8.32129 6.896 8.51465 6.896 8.75195C6.896 9.23535 7.27393 9.61328 7.74854 9.61328Z" fill="white"/>
</svg>
