<svg width="15" height="16" viewBox="0 0 15 16" fill="none" xmlns="http://www.w3.org/2000/svg">
<g clip-path="url(#clip0_2489_835)">
<path d="M0.0297852 15.4769C0.0297852 15.2969 0.119785 15.1469 0.239785 15.0269C1.04979 14.2169 1.85978 13.4069 2.63979 12.6269C6.41979 8.81689 10.1998 5.03689 14.0098 1.25689C14.2798 0.986893 14.5198 0.956892 14.7898 1.13689C15.0298 1.31689 15.0898 1.61689 14.9098 1.85689C14.8798 1.91689 14.8198 1.97689 14.7598 2.00689C10.1698 6.59689 5.60979 11.1869 1.01979 15.7469C0.869785 15.8969 0.689785 16.0169 0.449785 15.9569C0.209785 15.9269 0.0297852 15.7169 0.0297852 15.4769Z" fill="white"/>
<path d="M0 12.4167C0.06 12.2967 0.09 12.2067 0.15 12.0867C0.18 12.0567 0.21 12.0267 0.24 11.9667C3.84 8.39669 7.41 4.82669 10.98 1.2567C11.07 1.1667 11.22 1.0767 11.37 1.0467C11.58 0.986695 11.79 1.1067 11.91 1.3167C12 1.4667 12 1.7067 11.85 1.8867C11.82 1.9167 11.79 1.9767 11.73 2.0067C8.16 5.57669 4.59 9.14669 0.99 12.7167C0.9 12.8067 0.75 12.8967 0.6 12.9267C0.3 12.9867 0.03 12.7467 0 12.4167Z" fill="white"/>
<path d="M14.9101 4.64776C14.9101 4.82776 14.8201 4.94776 14.7301 5.06776C12.8401 6.95776 10.9501 8.84775 9.06009 10.7378C7.38009 12.4178 5.73009 14.0678 4.05009 15.7478C3.93009 15.8678 3.81009 15.9578 3.63009 15.9578C3.42009 15.9578 3.24009 15.8678 3.15009 15.6578C3.06009 15.4778 3.06009 15.2678 3.18009 15.0878C3.21009 15.0578 3.24009 14.9978 3.30009 14.9678C6.87009 11.3978 10.4401 7.82776 13.9801 4.25776C14.1601 4.07776 14.3401 4.01776 14.5801 4.10776C14.7901 4.22776 14.9101 4.43776 14.9101 4.64776Z" fill="white"/>
<path d="M8.37009 0.957031C8.67009 0.957031 8.85009 1.07703 8.94009 1.25703C9.03009 1.46703 9.00009 1.64703 8.85009 1.82703C8.79009 1.88703 8.73009 1.94703 8.67009 2.00703C6.12009 4.55703 3.57009 7.10703 1.02009 9.65703C0.870089 9.80703 0.690089 9.92703 0.450089 9.89703C0.060089 9.83703 -0.119911 9.38703 0.120089 9.05703C0.150089 8.99703 0.210089 8.93703 0.270089 8.90703C2.88009 6.32703 5.46009 3.74703 8.04009 1.16703C8.16009 1.04703 8.31009 1.01703 8.37009 0.957031Z" fill="white"/>
<path d="M15.0001 7.55712C15.0001 7.76712 14.9101 7.91712 14.7901 8.03712C13.8001 9.02712 12.7801 10.0471 11.7901 11.0371C10.2001 12.5971 8.64009 14.1871 7.05009 15.7471C6.90009 15.8971 6.72009 16.0171 6.48009 15.9571C6.06009 15.8671 5.94009 15.3571 6.21009 15.0571C6.39009 14.8471 6.60009 14.6671 6.81009 14.4571C9.18009 12.0871 11.5501 9.71712 13.9201 7.37712C14.0101 7.28712 14.0701 7.19712 14.1301 7.13712C14.3101 7.01712 14.4901 7.01712 14.6701 7.10712C14.8801 7.19712 14.9701 7.37712 15.0001 7.55712Z" fill="white"/>
<path d="M9.12012 15.4467C9.12012 15.2667 9.21012 15.1467 9.33012 14.9967C10.3501 13.9766 11.3401 12.9866 12.3601 11.9666C12.9301 11.3966 13.5001 10.8266 14.0701 10.2566C14.2501 10.0766 14.4901 10.0166 14.7001 10.1366C14.9101 10.2266 15.0301 10.4666 15.0001 10.6766C14.9701 10.8266 14.8801 10.9766 14.7901 11.0666C13.6501 12.2066 12.5101 13.3467 11.3701 14.4866C10.9501 14.9067 10.5001 15.3566 10.0801 15.7766C9.90012 15.9566 9.69012 15.9866 9.48012 15.8967C9.24012 15.8667 9.12012 15.6567 9.12012 15.4467Z" fill="white"/>
<path d="M0.0297852 6.26744C0.0597852 6.20744 0.119785 6.05744 0.209785 5.96744C1.79979 4.37744 3.38979 2.78744 4.97979 1.16744C5.21979 0.957441 5.51979 0.927441 5.72979 1.13744C5.93979 1.34744 5.93979 1.67744 5.72979 1.91744C4.13979 3.50744 2.54979 5.12744 0.929785 6.71744C0.749785 6.89744 0.539785 6.92744 0.329785 6.83744C0.149785 6.74744 0.0297852 6.59744 0.0297852 6.26744Z" fill="white"/>
<path d="M14.9998 13.7363C14.9698 13.7963 14.9098 13.9463 14.8198 14.0363C14.2198 14.6363 13.6498 15.2363 13.0498 15.8063C12.8098 16.0463 12.4798 16.0463 12.2698 15.8063C12.0598 15.5963 12.0598 15.2663 12.2698 15.0563C12.8698 14.4563 13.4698 13.8563 14.0398 13.2863C14.2198 13.1063 14.4598 13.0763 14.6398 13.1663C14.8798 13.2563 14.9698 13.4363 14.9998 13.7363Z" fill="white"/>
<path d="M0.57016 3.89765C0.33016 3.89765 0.18016 3.77765 0.0901604 3.56765C0.000160426 3.35765 0.0301604 3.14765 0.21016 2.96765C0.45016 2.72765 0.72016 2.45765 0.96016 2.18765C1.29016 1.85765 1.62016 1.52765 1.95016 1.19765C2.19016 0.957654 2.52016 0.927654 2.76016 1.16765C2.97016 1.37765 2.94016 1.70765 2.70016 1.97765C2.13016 2.54765 1.56016 3.11765 0.99016 3.68765C0.87016 3.80765 0.72016 3.89765 0.57016 3.89765Z" fill="white"/>
</g>
<defs>
<clipPath id="clip0_2489_835">
<rect width="15" height="15" fill="white" transform="translate(0 0.986328)"/>
</clipPath>
</defs>
</svg>
