<svg width="20" height="20" viewBox="0 0 20 20" fill="none" xmlns="http://www.w3.org/2000/svg">
<path d="M12.808 2.063C13.7574 2.44074 14.6254 3.00761 15.3624 3.73127C16.0993 4.45492 16.6909 5.32118 17.1032 6.28059C17.5155 7.23999 17.7406 8.27376 17.7655 9.32285C17.7904 10.372 17.6147 11.4158 17.2484 12.3949C16.8821 13.374 16.3324 14.2691 15.6307 15.0291C14.929 15.7891 14.089 16.3991 13.1586 16.8243C12.2283 17.2495 11.2259 17.4816 10.2086 17.5073C9.19125 17.533 8.179 17.3518 7.22959 16.974C6.28019 16.5963 5.41223 16.0294 4.67526 15.3058C3.9383 14.5821 3.34677 13.7159 2.93444 12.7565C2.52212 11.7971 2.29707 10.7633 2.27215 9.71419C2.24724 8.66509 2.42294 7.62121 2.78922 6.64214C3.15551 5.66306 3.70521 4.76798 4.40693 4.00799C5.10866 3.24799 5.94867 2.63797 6.879 2.21276C7.80933 1.78755 8.81177 1.55547 9.82908 1.52978C10.8464 1.50408 11.8586 1.68527 12.808 2.063L12.808 2.063Z" stroke="url(#paint0_angular_2755_113)" stroke-width="3" stroke-linecap="round"/>
<defs>
<radialGradient id="paint0_angular_2755_113" cx="0" cy="0" r="1" gradientUnits="userSpaceOnUse" gradientTransform="translate(10.0188 9.51852) rotate(21.6958) scale(7.78079 7.95848)">
<stop stop-color="white"/>
<stop offset="1" stop-color="#2D2D2D"/>
</radialGradient>
</defs>
</svg>
