<svg width="18" height="18" viewBox="0 0 18 18" fill="none" xmlns="http://www.w3.org/2000/svg">
<path d="M2.72908 11.7433C3.29628 12.2585 3.97257 11.8594 3.97257 11.1845V9.79849H7.83394V13.6518H6.43046C5.75418 13.6518 5.3615 14.334 5.87053 14.8927L8.00119 17.2149C8.35024 17.6068 8.88109 17.6068 9.23014 17.2149L11.3535 14.9C11.8698 14.334 11.4771 13.6518 10.7936 13.6518H9.40466V9.79849H13.2515V11.1845C13.2515 11.8594 13.935 12.2585 14.5022 11.7433L16.822 9.62433C17.2147 9.26875 17.2074 8.73901 16.822 8.39794L14.495 6.27171C13.935 5.76374 13.2515 6.15561 13.2515 6.83048V8.22378H9.40466V4.36319H10.7936C11.4771 4.36319 11.8698 3.68105 11.3535 3.11503L9.22287 0.792868C8.86654 0.401004 8.3357 0.422774 7.99392 0.807382L5.87053 3.12954C5.3615 3.68105 5.75418 4.36319 6.43046 4.36319H7.83394V8.22378H3.97257V6.83048C3.97257 6.15561 3.28901 5.76374 2.73635 6.27171L0.409349 8.39068C0.031211 8.73175 0.00212356 9.26149 0.402077 9.61707L2.72908 11.7433Z" fill="white"/>
</svg>
