<svg width="17" height="20" viewBox="0 0 17 20" fill="none" xmlns="http://www.w3.org/2000/svg">
<path d="M8.54346 9.61328C9.01807 9.61328 9.396 9.23535 9.396 8.75195C9.396 8.51465 9.30811 8.32129 9.1499 8.16309L6.75928 5.79004C7.21631 5.71094 7.74365 5.66699 8.31494 5.66699C11.6987 5.66699 14.397 8.37402 14.397 11.793C14.397 15.1855 11.6812 17.9102 8.28857 17.9102C4.90479 17.9102 2.18018 15.1855 2.18018 11.793C2.18018 11.2656 1.8374 10.8877 1.32764 10.8877C0.800293 10.8877 0.431152 11.2656 0.431152 11.793C0.431152 16.1523 3.93799 19.6592 8.28857 19.6592C12.6479 19.6592 16.146 16.1523 16.146 11.793C16.146 7.43359 12.6655 3.95312 8.31494 3.95312C7.90186 3.95312 7.47998 3.98828 7.05811 4.0498L9.15869 1.99316C9.30811 1.82617 9.396 1.63281 9.396 1.39551C9.396 0.912109 9.02686 0.516602 8.54346 0.516602C8.28857 0.516602 8.08643 0.604492 7.92822 0.780273L4.32471 4.44531C4.14014 4.62109 4.05225 4.84961 4.05225 5.08691C4.05225 5.33301 4.13135 5.54395 4.32471 5.7373L7.93701 9.36719C8.08643 9.53418 8.28857 9.61328 8.54346 9.61328Z" fill="white"/>
</svg>
