<svg width="30" height="33" viewBox="0 0 30 33" fill="none" xmlns="http://www.w3.org/2000/svg">
<path d="M15.0782 32.9822L14.9196 32.6759L15.1533 32.8144L14.9196 32.6758L14.8862 32.6113L15.1382 32.4687L15.1387 32.4684L15.8982 32.0388L16.9507 31.4433L17.2136 31.2946L18.4006 31.2019L18.398 31.2236C18.2647 31.2973 18.1311 31.3705 17.9974 31.4433C17.3722 31.7838 16.7421 32.1164 16.1104 32.446C15.8303 32.5921 15.5498 32.7377 15.2693 32.8831L15.154 32.8148L15.2693 32.8831C15.2327 32.9021 15.1961 32.9211 15.1595 32.9401C15.1593 32.9402 15.1591 32.9403 15.1588 32.9404C15.132 32.9543 15.1051 32.9683 15.0782 32.9822ZM15.0782 32.9822L14.9194 32.6757L14.8475 32.6331L14.8326 32.6416L14.8325 32.6416L14.5091 32.8246C14.5692 32.8557 14.6293 32.8869 14.6894 32.918C14.8018 32.9763 14.9859 33.03 15.0782 32.9822ZM14.5027 32.8212L14.8373 32.6324L14.8374 32.6324L14.8419 32.6298L14.8394 32.6284L14.8394 32.6283L14.0046 32.1335L14.8394 32.6283L14.8395 32.6283L14.8419 32.6298L14.8834 32.6064L14.8671 32.575L14.8836 32.6063L15.1379 32.4628L15.1385 32.4625L15.8962 32.0349L16.9447 31.4433L17.2074 31.2951L15.577 31.4224L15.5205 31.314L15.5203 31.3137L15.3288 30.9461L15.0718 30.9469L15.0714 30.9469L14.6209 30.9481L14.3635 31.4433H14.2815L14.3214 31.5204L14.3224 31.5224L14.8671 32.5749L14.322 31.5232L14.3206 31.5205L14.2806 31.4433H12.8403M12.8403 31.4433L13.1276 31.6136L12.8403 31.4433H12.8403ZM18.4033 31.2017L18.4433 31.1986C18.4291 31.2064 18.415 31.2142 18.4008 31.2221L18.4033 31.2017Z" fill="white" stroke="white" stroke-width="77"/>
<path d="M0.570834 7.97182L0.545851 7.95737L0.570834 7.97182ZM0.570834 7.97182L0.571199 7.97203L0.570834 7.97182ZM2.50559 6.57836C2.61983 6.51734 2.73412 6.45641 2.84843 6.3955L2.32986 7.36959L2.32975 7.36979L1.87976 8.21504L2.00115 8.44058L2.00131 8.44089L2.28128 8.96108L1.67067 8.6078L1.50117 8.51L1.67057 8.60799L2.28144 8.96136L2.38267 9.14947H1.3823H1.2246H1.22423H1.16866L0.580313 10.281L0.580103 10.2814L0.00794181 11.3817C0.0075848 11.1416 0.00616546 10.9014 0.00474611 10.6612C0.001768 10.1572 -0.00121017 9.65315 0.00562488 9.14947C0.00803601 8.97179 0.0116683 8.79416 0.0169525 8.61658C0.0169553 8.61648 0.016958 8.61639 0.0169608 8.6163C0.0194692 8.53203 0.0223497 8.44777 0.0256483 8.36353C0.0325707 8.18605 0.149654 7.95605 0.296929 7.81338L0.545763 7.95732L0.297161 7.81315C0.334313 7.77719 0.373383 7.74679 0.413088 7.7242C0.465167 7.69454 0.5173 7.66498 0.569484 7.6355C0.569613 7.63542 0.569741 7.63535 0.56987 7.63528C0.824828 7.49124 1.081 7.34915 1.33799 7.20841C1.72575 6.99606 2.11539 6.78675 2.50559 6.57836ZM0.880384 8.15089L0.880587 8.15101L0.880384 8.15089Z" fill="white" stroke="white" stroke-width="77"/>
<mask id="path-3-inside-1_3400_65" fill="white">
<path d="M28.7158 9.14651C27.7821 9.63252 26.9744 10.0745 26.1433 10.4708C25.9302 10.5726 25.6023 10.6212 25.3981 10.5366C24.9612 10.3556 25.0202 9.81753 25.498 9.55223C26.288 9.11375 27.0928 8.69943 27.9835 8.22604C27.7216 8.07406 27.5219 7.95135 27.3157 7.83965C26.6102 7.45755 25.9 7.08351 25.1967 6.69793C24.8742 6.52097 24.6797 6.2675 24.8881 5.90876C25.087 5.56641 25.4059 5.53043 25.7436 5.70952C27.034 6.39504 28.3248 7.08029 29.6004 7.79024C29.74 7.86784 29.8583 8.1036 29.8602 8.26739C29.8793 9.78342 29.8706 11.2995 29.87 12.8158C29.8698 13.2081 29.7097 13.5013 29.2647 13.4876C28.8549 13.4747 28.715 13.1866 28.7153 12.8225C28.7164 11.6472 28.7158 10.4722 28.7158 9.14651Z"/>
</mask>
<path d="M28.7158 9.14651C27.7821 9.63252 26.9744 10.0745 26.1433 10.4708C25.9302 10.5726 25.6023 10.6212 25.3981 10.5366C24.9612 10.3556 25.0202 9.81753 25.498 9.55223C26.288 9.11375 27.0928 8.69943 27.9835 8.22604C27.7216 8.07406 27.5219 7.95135 27.3157 7.83965C26.6102 7.45755 25.9 7.08351 25.1967 6.69793C24.8742 6.52097 24.6797 6.2675 24.8881 5.90876C25.087 5.56641 25.4059 5.53043 25.7436 5.70952C27.034 6.39504 28.3248 7.08029 29.6004 7.79024C29.74 7.86784 29.8583 8.1036 29.8602 8.26739C29.8793 9.78342 29.8706 11.2995 29.87 12.8158C29.8698 13.2081 29.7097 13.5013 29.2647 13.4876C28.8549 13.4747 28.715 13.1866 28.7153 12.8225C28.7164 11.6472 28.7158 10.4722 28.7158 9.14651Z" fill="white"/>
<path d="M28.7158 9.14651H105.716V-117.736L-6.83425 -59.1557L28.7158 9.14651ZM26.1433 10.4708L-6.99987 -59.0312L-7.01543 -59.0238L-7.03099 -59.0163L26.1433 10.4708ZM25.3981 10.5366L54.8634 -60.6027L54.8629 -60.6029L25.3981 10.5366ZM25.498 9.55223L-11.8707 -57.7722L-11.8804 -57.7668L25.498 9.55223ZM27.9835 8.22604L64.121 76.2193L186.475 11.1895L66.6375 -58.3688L27.9835 8.22604ZM27.3157 7.83965L63.9965 -59.862L63.9857 -59.8679L27.3157 7.83965ZM25.1967 6.69793L-11.8394 74.2059L-11.8306 74.2107L-11.8219 74.2155L25.1967 6.69793ZM24.8881 5.90876L-41.6915 -32.7713L-41.6919 -32.7707L24.8881 5.90876ZM25.7436 5.70952L61.8674 -62.291L61.8463 -62.3022L61.8253 -62.3133L25.7436 5.70952ZM29.6004 7.79024L-7.84565 75.0717L-7.82922 75.0809L-7.81279 75.09L29.6004 7.79024ZM29.8602 8.26739L-47.1343 9.18787L-47.134 9.21067L-47.1337 9.23347L29.8602 8.26739ZM29.87 12.8158L106.87 12.8707L106.87 12.8574L106.87 12.8442L29.87 12.8158ZM29.2647 13.4876L26.8442 90.4495L26.8704 90.4504L26.8966 90.4512L29.2647 13.4876ZM28.7153 12.8225L-48.2847 12.7492L-48.2847 12.7562L-48.2847 12.7633L28.7153 12.8225ZM-6.83425 -59.1557C-7.05367 -59.0415 -7.25351 -58.9369 -7.42553 -58.8465C-7.59495 -58.7576 -7.75057 -58.6756 -7.86874 -58.6133C-7.89875 -58.5975 -7.92845 -58.5818 -7.95512 -58.5677C-7.9826 -58.5533 -8.00731 -58.5402 -8.03141 -58.5275C-8.07972 -58.5021 -8.11869 -58.4815 -8.1532 -58.4634C-8.22353 -58.4263 -8.2569 -58.4089 -8.27026 -58.4019C-8.28236 -58.3956 -8.26033 -58.4071 -8.214 -58.431C-8.16708 -58.4552 -8.08746 -58.4961 -7.98188 -58.5495C-7.77247 -58.6553 -7.43429 -58.824 -6.99987 -59.0312L59.2865 79.9728C60.9437 79.1826 62.3062 78.4764 63.0524 78.0865C63.4171 77.8959 63.7834 77.7026 63.9424 77.6187C64.1536 77.5074 64.2253 77.4699 64.2659 77.4487L-6.83425 -59.1557ZM-7.03099 -59.0163C1.45874 -63.0695 9.89208 -65.1704 17.6056 -65.9926C24.2424 -66.7001 38.5098 -67.3762 54.8634 -60.6027L-4.06717 81.6759C12.4906 88.534 27.0241 87.8759 33.9292 87.1398C41.9109 86.289 50.6148 84.1129 59.3177 79.958L-7.03099 -59.0163ZM54.8629 -60.6029C85.2747 -48.0068 105.303 -16.5549 101.689 18.0687C98.5844 47.817 79.8563 67.4433 62.8764 76.8713L-11.8804 -57.7668C-29.3381 -48.0736 -48.3346 -28.0455 -51.479 2.08338C-55.1322 37.0876 -34.9154 68.8991 -4.06666 81.6761L54.8629 -60.6029ZM62.8667 76.8767C62.5899 77.0303 62.4583 77.0978 62.7075 76.966C62.8416 76.8951 62.9611 76.8322 63.2264 76.6924C63.4564 76.5712 63.7727 76.4044 64.121 76.2193L-8.15406 -59.7672C-8.62881 -59.5149 -8.39403 -59.6416 -9.30161 -59.1615C-9.87497 -58.8582 -10.8039 -58.3643 -11.8707 -57.7722L62.8667 76.8767ZM66.6375 -58.3688C66.712 -58.3255 66.7727 -58.2901 66.8146 -58.2655C66.8552 -58.2417 66.8819 -58.2259 66.8823 -58.2257C66.9628 -58.1783 66.7247 -58.3187 66.6024 -58.3905C66.2748 -58.5828 65.2732 -59.1704 63.9965 -59.862L-9.36507 75.5413C-9.92469 75.2381 -10.3862 74.9783 -10.7149 74.7905C-11.033 74.6089 -11.2696 74.4702 -11.345 74.426C-11.3854 74.4022 -11.4107 74.3873 -11.3954 74.3963C-11.3859 74.4019 -11.3824 74.404 -11.36 74.4172C-11.3426 74.4275 -11.3165 74.4428 -11.287 74.4602C-11.1708 74.5287 -10.9459 74.661 -10.6705 74.8208L66.6375 -58.3688ZM63.9857 -59.8679C63.4329 -60.1673 62.8501 -60.4787 62.6178 -60.6031C62.4643 -60.6854 62.3686 -60.7368 62.2957 -60.7761C62.2259 -60.8138 62.2046 -60.8255 62.2153 -60.8197L-11.8219 74.2155C-11.1213 74.5996 -10.4894 74.9385 -10.1071 75.1433C-9.63203 75.3978 -9.50699 75.4645 -9.35423 75.5472L63.9857 -59.8679ZM62.2328 -60.8101C67.7312 -57.7935 84.0491 -48.1171 94.1954 -27.0842C107.174 -0.18005 101.784 26.832 91.4682 44.5882L-41.6919 -32.7707C-52.2157 -14.6557 -57.6132 12.6624 -44.5088 39.8272C-34.2367 61.1207 -17.6603 71.0124 -11.8394 74.2059L62.2328 -60.8101ZM91.4678 44.5889C82.6047 59.8449 65.6981 76.0441 40.3864 81.114C17.533 85.6915 -0.709622 78.8397 -10.3381 73.7324L61.8253 -62.3133C51.8592 -67.5997 33.2883 -74.5231 10.1413 -69.8868C-15.464 -64.7581 -32.6295 -48.3697 -41.6915 -32.7713L91.4678 44.5889ZM-10.3802 73.7101C-8.96119 74.4639 -8.3483 74.792 -7.84565 75.0717L67.0464 -59.4912C64.9978 -60.6314 63.0293 -61.6738 61.8674 -62.291L-10.3802 73.7101ZM-7.81279 75.09C-25.9923 64.9837 -34.7929 50.5777 -38.2388 44.0822C-42.1091 36.7869 -46.948 24.7656 -47.1343 9.18787L106.855 7.34691C106.667 -8.39457 101.767 -20.6156 97.8027 -28.0892C94.2622 -34.7629 85.3326 -49.3256 67.0135 -59.5095L-7.81279 75.09ZM-47.1337 9.23347C-47.123 10.089 -47.1292 10.7192 -47.13 12.7873L106.87 12.8442C106.87 11.8797 106.881 9.47788 106.854 7.30132L-47.1337 9.23347ZM-47.13 12.7608C-47.1241 4.61337 -45.794 -15.3793 -30.5957 -34.5429C-12.3716 -57.5216 13.1753 -64.0439 31.6328 -63.476L26.8966 90.4512C45.7992 91.0328 71.6485 84.3707 90.064 61.1507C105.454 41.7459 106.864 21.4104 106.87 12.8707L-47.13 12.7608ZM31.6851 -63.4744C51.2828 -62.858 75.1285 -54.1027 91.2325 -31.8321C104.557 -13.4056 105.721 5.10012 105.715 12.8816L-48.2847 12.7633C-48.291 20.9089 -47.0566 39.7407 -33.5601 58.4055C-17.2838 80.9145 6.8367 89.8203 26.8442 90.4495L31.6851 -63.4744ZM105.715 12.8958C105.716 11.6716 105.716 10.4233 105.716 9.14651H-48.2842C-48.2842 10.521 -48.2836 11.6227 -48.2847 12.7492L105.715 12.8958Z" fill="white" mask="url(#path-3-inside-1_3400_65)"/>
<mask id="path-5-inside-2_3400_65" fill="white">
<path d="M14.3624 18.235C14.3621 17.7955 14.3118 17.3492 14.3739 16.9179C14.4701 16.251 14.1736 15.9059 13.5635 15.6398C12.8079 15.3101 12.0996 14.8815 11.3653 14.5059C10.9781 14.3077 10.7678 14.0212 11.0005 13.6327C11.2237 13.2602 11.5913 13.3295 11.9332 13.5086C12.7548 13.9388 13.5881 14.3501 14.389 14.8136C14.7731 15.0359 15.0651 15.062 15.4615 14.8281C16.2403 14.3689 17.0588 13.9721 17.8603 13.5484C18.2326 13.3515 18.6371 13.2106 18.8895 13.6571C19.1362 14.094 18.8232 14.3515 18.4368 14.5497C17.6113 14.9731 16.8012 15.4253 15.9676 15.8332C15.6422 15.9924 15.5261 16.1884 15.5317 16.5324C15.5505 17.6709 15.5351 18.8099 15.5401 19.9487C15.5421 20.3659 15.4694 20.7472 14.9311 20.7389C14.4312 20.7314 14.3574 20.3676 14.3616 19.9731C14.3672 19.3937 14.3627 18.8142 14.3624 18.235Z"/>
</mask>
<path d="M14.3624 18.235C14.3621 17.7955 14.3118 17.3492 14.3739 16.9179C14.4701 16.251 14.1736 15.9059 13.5635 15.6398C12.8079 15.3101 12.0996 14.8815 11.3653 14.5059C10.9781 14.3077 10.7678 14.0212 11.0005 13.6327C11.2237 13.2602 11.5913 13.3295 11.9332 13.5086C12.7548 13.9388 13.5881 14.3501 14.389 14.8136C14.7731 15.0359 15.0651 15.062 15.4615 14.8281C16.2403 14.3689 17.0588 13.9721 17.8603 13.5484C18.2326 13.3515 18.6371 13.2106 18.8895 13.6571C19.1362 14.094 18.8232 14.3515 18.4368 14.5497C17.6113 14.9731 16.8012 15.4253 15.9676 15.8332C15.6422 15.9924 15.5261 16.1884 15.5317 16.5324C15.5505 17.6709 15.5351 18.8099 15.5401 19.9487C15.5421 20.3659 15.4694 20.7472 14.9311 20.7389C14.4312 20.7314 14.3574 20.3676 14.3616 19.9731C14.3672 19.3937 14.3627 18.8142 14.3624 18.235Z" fill="white"/>
<path d="M14.3624 18.235L91.3624 18.1978L91.3624 18.186L14.3624 18.235ZM14.3739 16.9179L-61.837 5.92256L-61.8384 5.93247L-61.8399 5.94237L14.3739 16.9179ZM13.5635 15.6398L-17.2345 86.2124L-17.2269 86.2157L-17.2193 86.219L13.5635 15.6398ZM11.3653 14.5059L-23.7178 83.0491L-23.7104 83.0529L-23.703 83.0567L11.3653 14.5059ZM11.0005 13.6327L-55.0441 -25.9541L-55.0495 -25.945L-55.055 -25.9359L11.0005 13.6327ZM11.9332 13.5086L-23.8015 81.7145L-23.7919 81.7195L-23.7824 81.7245L11.9332 13.5086ZM14.389 14.8136L52.9644 -51.8268L52.9551 -51.8322L14.389 14.8136ZM15.4615 14.8281L-23.6451 -51.5019L-23.6558 -51.4956L-23.6666 -51.4892L15.4615 14.8281ZM17.8603 13.5484L-18.1247 -54.5257L-18.1283 -54.5238L17.8603 13.5484ZM18.8895 13.6571L85.9358 -24.2083L85.9314 -24.216L85.9271 -24.2237L18.8895 13.6571ZM18.4368 14.5497L53.5803 83.062L53.5803 83.062L18.4368 14.5497ZM15.9676 15.8332L-17.8733 -53.3318L-17.8817 -53.3277L15.9676 15.8332ZM15.5317 16.5324L-61.4581 17.7846L-61.458 17.7922L-61.4578 17.7998L15.5317 16.5324ZM15.5401 19.9487L-61.4591 20.2891L-61.4591 20.2996L-61.459 20.31L15.5401 19.9487ZM14.9311 20.7389L16.1219 -56.2519L16.1055 -56.2521L16.0891 -56.2524L14.9311 20.7389ZM14.3616 19.9731L91.3572 20.7922L91.3576 20.7544L91.358 20.7165L14.3616 19.9731ZM91.3624 18.186C91.3615 16.7196 91.3196 15.5411 91.31 15.2627C91.2874 14.6044 91.3146 15.3578 91.3261 15.8759C91.3527 17.0834 91.4606 21.832 90.5877 27.8935L-61.8399 5.94237C-62.7749 12.4352 -62.6729 17.6225 -62.6365 19.2708C-62.6202 20.0093 -62.5843 20.9837 -62.5993 20.5462C-62.6013 20.4885 -62.6368 19.5307 -62.6376 18.284L91.3624 18.186ZM90.5848 27.9133C92.6004 13.9425 91.5763 -7.12512 77.8489 -27.2544C65.8092 -44.9091 50.1574 -52.4049 44.3463 -54.9394L-17.2193 86.219C-22.4203 83.9506 -37.6188 76.7604 -49.3818 59.5115C-62.8324 39.788 -63.7564 19.2264 -61.837 5.92256L90.5848 27.9133ZM44.3615 -54.9327C45.7179 -54.3408 46.8075 -53.8121 47.5446 -53.4421C48.2651 -53.0805 48.7847 -52.8016 48.9159 -52.731C48.9852 -52.6938 49.0209 -52.6743 48.9462 -52.7149C48.9143 -52.7322 48.7206 -52.8375 48.5448 -52.9326C48.1734 -53.1335 47.3929 -53.5542 46.4336 -54.0449L-23.703 83.0567C-24.2952 82.7538 -24.7118 82.5276 -24.7202 82.523C-24.7304 82.5175 -24.7286 82.5184 -24.7028 82.5325C-24.6565 82.5576 -24.6598 82.5558 -24.5776 82.6005C-24.471 82.6584 -24.254 82.7763 -24.0031 82.9112C-23.1297 83.3807 -20.5526 84.7644 -17.2345 86.2124L44.3615 -54.9327ZM46.4484 -54.0373C52.2803 -51.0524 69.2908 -41.5293 79.9331 -20.0704C85.8226 -8.19488 88.8411 5.68466 87.6457 20.2176C86.4941 34.2172 81.7341 45.3916 77.056 53.2012L-55.055 -25.9359C-65.9956 -7.67173 -71.8712 20.447 -58.0322 48.3517C-47.2462 70.1005 -29.9369 79.866 -23.7178 83.0491L46.4484 -54.0373ZM77.0451 53.2195C71.6615 62.2011 63.2938 71.9036 51.0556 79.3091C38.7226 86.7719 25.8894 89.8227 14.6634 90.2956C-5.3074 91.1369 -19.6323 83.8988 -23.8015 81.7145L47.6678 -54.6972C43.1568 -57.0606 28.4772 -64.423 8.18134 -63.5679C-18.7563 -62.4331 -42.0785 -47.5852 -55.0441 -25.9541L77.0451 53.2195ZM-23.7824 81.7245C-23.5467 81.8479 -23.3351 81.9577 -23.1629 82.0469C-22.9945 82.1341 -22.8388 82.2144 -22.7343 82.2683C-22.6127 82.3309 -22.555 82.3607 -22.4975 82.3904C-22.4476 82.4162 -22.4386 82.421 -22.4528 82.4135C-22.4757 82.4016 -22.6605 82.3052 -22.9378 82.1547C-23.2195 82.0019 -23.6475 81.7658 -24.1771 81.4594L52.9551 -51.8322C51.1477 -52.8781 49.6135 -53.6868 48.7905 -54.1163C48.3816 -54.3297 47.99 -54.5312 47.836 -54.6106C47.6169 -54.7236 47.6117 -54.7266 47.6487 -54.7072L-23.7824 81.7245ZM-24.1864 81.454C-18.3415 84.8373 -5.34806 91.4236 12.6336 91.958C31.5167 92.5191 46.0368 86.1917 54.5896 81.1455L-23.6666 -51.4892C-15.5102 -56.3016 -1.33424 -62.5251 17.2077 -61.9741C34.8482 -61.4499 47.5036 -54.9878 52.9644 -51.8268L-24.1864 81.454ZM54.5682 81.1581C53.869 81.5703 53.2975 81.8882 52.9165 82.096C52.5424 82.3 52.2825 82.4355 52.237 82.4592C52.2108 82.4728 52.2118 82.4722 52.2684 82.443C52.2962 82.4287 52.3287 82.4119 52.3772 82.3869C52.4197 82.365 52.4848 82.3315 52.548 82.2989C52.7876 82.1753 53.2811 81.9207 53.8489 81.6205L-18.1283 -54.5238C-17.9613 -54.6121 -17.8706 -54.6583 -18.0342 -54.5739C-18.0984 -54.5408 -18.538 -54.3147 -18.9322 -54.1093C-19.7649 -53.6753 -21.5417 -52.742 -23.6451 -51.5019L54.5682 81.1581ZM53.8453 81.6225C53.5874 81.7588 39.6712 89.9033 20.15 90.342C8.33827 90.6075 -6.15012 88.1377 -20.3047 79.829C-34.2091 71.6672 -42.9693 60.7029 -48.1482 51.5379L85.9271 -24.2237C80.6221 -33.612 71.7167 -44.7261 57.6538 -52.9809C43.3408 -61.3825 28.6807 -63.8886 16.6898 -63.6191C-3.18982 -63.1723 -17.4945 -54.8589 -18.1247 -54.5257L53.8453 81.6225ZM-48.1569 51.5225C-53.0962 42.7767 -58.147 29.6945 -58.0205 13.3571C-57.8898 -3.5379 -52.2655 -17.8572 -45.1943 -28.4785C-33.5013 -46.042 -17.8161 -53.3936 -16.7066 -53.9627L53.5803 83.062C55.076 82.2947 71.111 74.7153 82.9954 56.8643C90.1623 46.0992 95.8427 31.6213 95.9748 14.5489C96.1026 -1.96583 90.9985 -15.2441 85.9358 -24.2083L-48.1569 51.5225ZM-16.7066 -53.9627C-17.2993 -53.6586 -17.8064 -53.392 -18.1424 -53.2145C-18.3117 -53.1251 -18.4674 -53.0425 -18.5734 -52.9863C-18.6967 -52.9209 -18.7544 -52.8903 -18.8145 -52.8584C-18.9292 -52.7977 -18.8664 -52.8315 -18.7274 -52.9033C-18.5794 -52.9796 -18.2793 -53.1332 -17.8733 -53.3318L49.8084 84.9982C51.381 84.2287 52.6889 83.5367 53.225 83.2529C53.3698 83.1763 53.517 83.0982 53.5985 83.0549C53.6975 83.0024 53.7466 82.9764 53.7824 82.9575C53.8565 82.9184 53.7602 82.9697 53.5803 83.062L-16.7066 -53.9627ZM-17.8817 -53.3277C-25.6405 -49.5304 -39.5461 -41.1206 -49.9188 -24.2961C-60.371 -7.34263 -61.6009 9.00442 -61.4581 17.7846L92.5216 15.2801C92.6588 23.7163 91.4842 39.7934 81.1699 56.5231C70.9352 73.1238 57.2503 81.3559 49.8168 84.994L-17.8817 -53.3277ZM-61.4578 17.7998C-61.4603 17.651 -61.4581 17.6561 -61.4588 18.1223C-61.459 18.2307 -61.4593 18.3442 -61.4596 18.4911C-61.4599 18.6284 -61.4603 18.7995 -61.4606 18.9752C-61.4611 19.3267 -61.4614 19.784 -61.4591 20.2891L92.5394 19.6082C92.5382 19.3446 92.5396 19.2369 92.541 18.3586C92.542 17.6859 92.5425 16.5523 92.5213 15.2649L-61.4578 17.7998ZM-61.459 20.31C-61.4608 19.9324 -62.4236 1.2112 -51.1139 -18.2241C-44.2374 -30.0411 -33.5555 -41.0313 -19.0866 -48.2408C-5.43123 -55.0449 7.37141 -56.3872 16.1219 -56.2519L13.7404 97.7297C22.76 97.8692 35.7735 96.4823 49.5939 89.596C64.2277 82.3044 75.0286 71.1943 81.9903 59.2309C93.4704 39.5027 92.543 20.3823 92.5393 19.5873L-61.459 20.31ZM16.0891 -56.2524C25.1453 -56.1162 37.7831 -54.2779 50.9894 -47.2036C64.8226 -39.7936 74.8892 -28.9785 81.3657 -17.6075C92.2246 1.45774 91.3708 19.5183 91.3572 20.7922L-62.6341 19.154C-62.6518 20.8224 -63.4708 39.2621 -52.4511 58.6097C-36.4992 86.6168 -8.54981 97.3945 13.7732 97.7302L16.0891 -56.2524ZM91.358 20.7165C91.3649 20.0024 91.3647 19.3812 91.3641 18.9831C91.3631 18.3394 91.3626 18.5253 91.3624 18.1978L-62.6376 18.2722C-62.6375 18.5027 -62.6369 18.7156 -62.6365 18.867C-62.6361 19.041 -62.6358 19.1298 -62.6357 19.2248C-62.6354 19.4061 -62.6361 19.3644 -62.6348 19.2297L91.358 20.7165Z" fill="white" mask="url(#path-5-inside-2_3400_65)"/>
<path d="M28.7499 20.2355C28.8009 20.0152 28.9897 19.742 29.1718 19.6534L29.3102 20.2301L29.3102 20.2303L29.3394 20.3517L29.3394 20.3517L29.8687 22.5575H28.7026C28.6977 21.8133 28.7058 21.0692 28.7369 20.3264C28.7381 20.2978 28.7426 20.2674 28.7498 20.2359C28.7499 20.2358 28.7499 20.2356 28.7499 20.2355ZM29.2525 25.5509L29.251 25.5478L29.2525 25.5509ZM29.8828 24.4712C29.8925 24.6029 29.8895 24.7212 29.8716 24.8285V24.4721V24.2913C29.8746 24.3514 29.8783 24.4113 29.8828 24.4712Z" fill="white" stroke="white" stroke-width="77"/>
<path d="M0.000181479 24.7106C0.00303499 24.5319 0.00540367 24.3532 0.00734782 24.1745L0.534157 24.4949L0.530913 24.7191L0.530911 24.7193L0.52165 25.3594L0.47406 25.4528M0.000181479 24.7106C-0.00597279 25.0879 0.144247 25.2847 0.47406 25.4528M0.000181479 24.7106L0.000872045 24.7106L0.000181479 24.7106ZM0.47406 25.4528C0.489362 25.4606 0.504662 25.4684 0.51996 25.4762L0.521649 25.3594L0.47406 25.4528ZM0.604979 19.5997C0.0965129 19.5924 0.00845871 19.9579 0.00631889 20.3653C0.00631854 20.3653 0.0063182 20.3654 0.00631786 20.3655C0.00625852 20.3769 0.00626695 20.3884 0.00633574 20.3999C0.00990332 21.0107 0.0134709 21.6216 0.0146315 22.2325C0.0146315 22.2325 0.0146316 22.2325 0.0146316 22.2325C0.0157306 22.811 0.0146712 23.3895 0.00940936 23.9679C0.00940735 23.9681 0.00940533 23.9683 0.00940332 23.9686C0.00878415 24.0366 0.00810686 24.1046 0.00736812 24.1726L0.534181 24.4932L0.541376 23.9959L0.541381 23.9955L0.566892 22.2322L0.567123 22.2322L0.567123 22.2322L0.541766 23.9956L0.541761 23.9959L0.534606 24.4935L0.861372 24.6923L1.15988 24.1062C1.15949 24.081 1.15999 24.0548 1.16138 24.0278C1.1833 23.6063 1.17846 23.1834 1.17361 22.7605C1.17159 22.5843 1.16958 22.4081 1.16949 22.232C1.16941 22.0552 1.16901 21.8785 1.16861 21.7017C1.16763 21.2655 1.16664 20.8293 1.17046 20.3931C1.17046 20.393 1.17046 20.393 1.17046 20.3929C1.17051 20.3873 1.17056 20.3816 1.17061 20.376C1.17425 19.9813 1.08753 19.6067 0.604979 19.5997ZM0.604979 19.5997L0.593892 20.3707L0.604979 19.5997ZM4.25629 26.7586L1.48228 25.0702L1.62836 24.7774L1.48226 25.0702L0.915974 24.7256L0.91544 24.7252L0.861571 24.6925L1.1599 24.1071C1.16486 24.4095 1.2985 24.5861 1.57107 24.7357C1.57141 24.7359 1.57175 24.7361 1.57209 24.7363C1.59168 24.747 1.61199 24.7576 1.63302 24.7681C2.26108 25.0815 2.88035 25.411 3.49968 25.7406C3.83662 25.9199 4.17359 26.0992 4.512 26.276C4.51207 26.276 4.51214 26.276 4.51221 26.2761C4.51889 26.2796 4.52557 26.283 4.53224 26.2865C4.91633 26.4868 5.22236 26.7382 4.95241 27.182M4.25629 26.7586L1.48178 25.0712L1.12481 25.7867C2.01462 26.2463 2.89945 26.7151 3.7841 27.1838C3.84838 27.2178 3.91267 27.2519 3.97696 27.2859C3.98579 27.2906 3.99462 27.2952 4.00345 27.2998C4.00354 27.2999 4.00362 27.2999 4.0037 27.3C4.35427 27.4817 4.70907 27.5819 4.95241 27.182M4.25629 26.7586L4.25651 26.7585L4.25629 26.7586ZM4.95241 27.182L4.27886 26.7724L4.95241 27.182ZM0.531361 24.7191L0.534582 24.4951L0.860767 24.6935L0.845185 24.7241L0.860966 24.6936L0.912849 24.7252L0.913381 24.7255L1.48175 25.0712L1.12473 25.7866C0.923583 25.6827 0.722181 25.5793 0.520471 25.4764L0.522168 25.3584L0.845038 24.7244L0.522169 25.3583L0.531359 24.7193L0.531361 24.7191Z" fill="white" stroke="white" stroke-width="77"/>
<path d="M14.7443 0.0326596C14.8665 -0.0307098 15.0987 0.00580812 15.2344 0.0766959C15.4958 0.213116 15.7565 0.350587 16.0169 0.488739L15.7517 0.9527L15.0126 0.550273L15 0.525856M14.7443 0.0326596C14.6279 0.0930066 14.5115 0.1535 14.3953 0.214139L14.9926 0.53939L14.9928 0.539502L15.0126 0.550257L15 0.525856M14.7443 0.0326596L14.7501 0.0438737L14.7443 0.0326596ZM15 0.525856L14.9998 0.525609L15 0.525856ZM18.7191 1.93455L18.4574 2.42599L18.4449 2.41914L18.7083 1.92878C18.7119 1.9307 18.7155 1.93262 18.7191 1.93455ZM18.7191 1.93455L18.4575 2.42605L18.8708 2.65105L19.1886 2.6605C19.2937 2.32461 19.0416 2.10627 18.7191 1.93455ZM11.0461 2.01376C11.0674 2.00201 11.0886 1.99027 11.1098 1.97853C11.1099 1.9785 11.1099 1.97847 11.11 1.97843C12.0277 1.47129 12.951 0.973215 13.8795 0.484438C13.8795 0.484413 13.8796 0.484387 13.8796 0.484362C14.051 0.394138 14.2226 0.304231 14.3943 0.214642L14.9923 0.540089L14.9925 0.540202L15.0132 0.551502L15.4735 1.43935L15.4565 1.46895L15.4735 1.43936L15.5034 1.49711C15.4876 1.48809 15.4718 1.47906 15.4559 1.47002C15.1264 1.28144 14.8644 1.2513 14.5393 1.40851C14.5389 1.40868 14.5386 1.40884 14.5383 1.40901C14.5063 1.42448 14.4738 1.44177 14.4405 1.46089C13.8364 1.80795 13.2231 2.14094 12.6048 2.46471L11.3372 2.42701L11.337 2.42701L11.2738 2.42513L11.0461 2.01376ZM11.0461 2.01376C10.918 2.08467 10.8243 2.21278 10.752 2.31166C10.7243 2.34945 10.6998 2.38297 10.6777 2.4074M11.0461 2.01376L11.2737 2.42512L10.6777 2.4074M10.6777 2.4074C10.6632 2.89366 10.9919 3.14217 11.3925 3.05472L10.6777 2.4074ZM15.7519 0.95281L16.0173 0.488944C16.501 0.745552 16.9833 1.00451 17.4656 1.26347C17.8795 1.48572 18.2934 1.70797 18.7082 1.92873L18.4448 2.41911L15.7519 0.95281ZM18.4575 2.42616L18.8706 2.65104L18.3461 2.63544L18.4575 2.42616ZM18.4574 2.4261L18.3459 2.63544L18.3289 2.63493L18.4448 2.41925L18.4574 2.4261ZM18.4447 2.41923L18.3289 2.63493L17.5632 2.61216C17.4921 2.57451 17.4211 2.53688 17.35 2.49926C16.7307 2.17134 16.1115 1.84343 15.5035 1.49716L15.4735 1.43931L15.7516 0.953369L18.4447 2.41923ZM15.4735 1.43929L15.0133 0.551518L15.7514 0.953259L15.4735 1.43929Z" fill="white" stroke="white" stroke-width="77"/>
</svg>
