<svg width="19" height="21" viewBox="0 0 19 21" fill="none" xmlns="http://www.w3.org/2000/svg">
<path d="M9.85087 19.9264C10.4357 19.6315 10.9634 19.365 11.4918 19.0995C11.5726 19.0589 11.6611 18.9829 11.7366 18.9916C11.9006 19.0108 12.1394 19.0335 12.1963 19.1309C12.2551 19.2316 12.187 19.5045 12.0844 19.561C11.2478 20.0216 10.3915 20.4516 9.53546 20.8809C9.47709 20.9101 9.36069 20.8773 9.28958 20.8416C8.51424 20.453 7.7435 20.0566 6.96922 19.666C6.7267 19.5438 6.5261 19.3839 6.68884 19.1182C6.85229 18.8514 7.10384 18.9395 7.34177 19.0614C7.89103 19.343 8.44436 19.6177 9.08349 19.9393C9.08349 19.4257 9.08349 18.9824 9.08349 18.5393C9.08349 18.3071 9.08597 18.0749 9.08349 17.8428C9.08101 17.6175 9.17212 17.4471 9.43145 17.4361C9.71324 17.4241 9.82451 17.5965 9.82557 17.8383C9.82787 18.4371 9.82646 19.0359 9.82823 19.6346C9.82823 19.7073 9.83902 19.7796 9.85087 19.9264Z" fill="white"/>
<path d="M1.18874 5.72643C1.73765 6.00919 2.22429 6.26534 2.71695 6.51097C2.95558 6.62992 3.11355 6.78699 2.96514 7.03525C2.81336 7.2891 2.57862 7.22634 2.3506 7.11017C1.83636 6.84861 1.32 6.59049 0.739069 6.2982C0.739069 6.9766 0.739069 7.58303 0.739069 8.1893C0.739069 8.31138 0.74013 8.43345 0.737477 8.55553C0.732701 8.77881 0.633108 8.95002 0.375016 8.951C0.121169 8.95199 0.00742442 8.79245 0.00653993 8.56325C0.00530166 8.28246 0.00530166 8.00167 0.00512476 7.72105C0.00494787 7.08635 -0.00938076 6.45116 0.0162693 5.81729C0.021753 5.68125 0.136559 5.49477 0.261271 5.42609C1.01786 5.00926 1.79249 4.62069 2.55987 4.22078C2.79638 4.09755 3.0205 4.07307 3.16255 4.32807C3.29894 4.57288 3.12717 4.71598 2.91684 4.82606C2.36086 5.1172 1.80363 5.40621 1.18874 5.72643Z" fill="white"/>
<path d="M18.1587 6.29682C17.5682 6.59421 17.0575 6.86465 16.532 7.10716C16.3972 7.16943 16.1898 7.19917 16.0607 7.14741C15.7844 7.03667 15.8217 6.70741 16.1239 6.54508C16.6234 6.27678 17.1323 6.02326 17.6956 5.7336C17.53 5.64061 17.4037 5.56552 17.2733 5.49717C16.8272 5.26337 16.3781 5.0345 15.9333 4.79856C15.7294 4.69029 15.6064 4.53519 15.7382 4.31568C15.864 4.1062 16.0657 4.08418 16.2792 4.19377C17.0952 4.61323 17.9114 5.03253 18.718 5.46694C18.8063 5.51442 18.8811 5.65868 18.8824 5.7589C18.8944 6.68655 18.8889 7.61419 18.8886 8.542C18.8884 8.78204 18.7872 8.96146 18.5058 8.95308C18.2466 8.94519 18.1582 8.7689 18.1583 8.5461C18.1591 7.82696 18.1587 7.10798 18.1587 6.29682Z" fill="white"/>
<path d="M9.08291 11.8572C9.08274 11.5882 9.05089 11.3151 9.09017 11.0513C9.15102 10.6431 8.96351 10.432 8.5777 10.2692C8.0999 10.0674 7.652 9.8052 7.18764 9.57534C6.94282 9.45409 6.80979 9.27878 6.95697 9.04104C7.09813 8.81315 7.33057 8.85554 7.54674 8.96513C8.06629 9.22834 8.59326 9.48005 9.09972 9.76363C9.3426 9.89967 9.52728 9.91561 9.77794 9.7725C10.2704 9.49155 10.788 9.24871 11.2948 8.98945C11.5303 8.86901 11.7861 8.78275 11.9456 9.05599C12.1017 9.32331 11.9037 9.48087 11.6594 9.60212C11.1374 9.86123 10.6251 10.1379 10.0979 10.3875C9.89222 10.4849 9.8188 10.6049 9.82234 10.8153C9.83419 11.512 9.82446 12.2089 9.82765 12.9057C9.82889 13.161 9.78289 13.3944 9.44254 13.3893C9.12643 13.3847 9.07973 13.162 9.08238 12.9207C9.08592 12.5661 9.08309 12.2116 9.08291 11.8572Z" fill="white"/>
<path d="M18.8886 14.5005C18.8886 14.8908 18.866 15.2829 18.8957 15.6714C18.9201 15.991 18.8184 16.1824 18.4971 16.3321C17.7699 16.6707 17.063 17.0473 16.3492 17.4109C16.1302 17.5224 15.9128 17.5624 15.7664 17.3325C15.6077 17.0834 15.7598 16.9224 15.9953 16.8026C16.6052 16.4921 17.2056 16.1642 17.8265 15.8738C18.0929 15.7493 18.1692 15.5937 18.1628 15.3308C18.1455 14.599 18.1394 13.8661 18.1711 13.1353C18.1776 12.9841 18.337 12.7516 18.4773 12.7115C18.7354 12.6378 18.8829 12.8254 18.8854 13.073C18.8904 13.5488 18.8868 14.0246 18.8868 14.5006C18.8875 14.5005 18.8881 14.5005 18.8886 14.5005Z" fill="white"/>
<path d="M0.739543 14.3021C0.73972 14.6685 0.754048 15.0356 0.734413 15.401C0.722207 15.6307 0.818262 15.7504 1.03266 15.8539C1.65021 16.1521 2.25431 16.4742 2.86602 16.7831C3.1089 16.9056 3.30242 17.0594 3.13172 17.331C2.97392 17.5819 2.74201 17.5111 2.51488 17.3946C1.77863 17.0172 1.04257 16.639 0.299778 16.2729C0.0912165 16.1701 -0.00377697 16.0496 0.00011476 15.8188C0.0146203 14.9398 0.00931338 14.0603 0.00400648 13.1811C0.00241441 12.9235 0.0519455 12.6869 0.382565 12.6915C0.687712 12.6957 0.74255 12.9249 0.74025 13.1665C0.736712 13.545 0.739366 13.9236 0.739543 14.3021Z" fill="white"/>
<path d="M6.75322 2.17228C6.80381 2.11823 6.87422 1.99138 6.98619 1.93142C7.75959 1.51738 8.53935 1.1132 9.32477 0.719203C9.40207 0.680428 9.54889 0.702773 9.63469 0.746148C10.3729 1.11895 11.1035 1.50456 11.8383 1.88295C12.0679 2.00124 12.2411 2.15569 12.099 2.40822C11.9542 2.66568 11.7187 2.61376 11.4898 2.4948C10.9174 2.19725 10.3382 1.91038 9.77479 1.59871C9.54571 1.47187 9.36828 1.46217 9.13266 1.59312C8.54748 1.91844 7.94869 2.22354 7.34547 2.51912C7.03378 2.67192 6.74243 2.52339 6.75322 2.17228Z" fill="white"/>
</svg>
