<svg width="95" height="95" viewBox="0 0 95 95" fill="none" xmlns="http://www.w3.org/2000/svg">
<circle cx="47.5" cy="47.5" r="47.5" fill="url(#paint0_linear_872_121)"/>
<g filter="url(#filter0_d_872_121)">
<path d="M46.8837 71.29C47.3018 71.29 47.929 71.1506 48.5329 70.8254C61.8892 63.555 66.5348 60.1869 66.5348 51.7318V34.1945C66.5348 31.4071 65.4663 30.4083 63.1203 29.4095C60.5652 28.3177 51.8778 25.2981 49.3691 24.4386C48.5794 24.1831 47.6967 24.0205 46.8837 24.0205C46.094 24.0205 45.1881 24.2296 44.4215 24.4386C41.9129 25.1587 33.2255 28.341 30.6704 29.4095C28.3244 30.385 27.2559 31.4071 27.2559 34.1945V51.7318C27.2559 60.1869 31.9015 63.5085 45.2577 70.8254C45.8617 71.1506 46.4888 71.29 46.8837 71.29ZM46.8837 66.3656C46.5585 66.3656 46.2333 66.2494 45.5597 65.8313C34.9676 59.3739 31.6692 57.6318 31.6692 50.8723V34.9378C31.6692 34.1016 31.8318 33.7764 32.4822 33.4976C35.92 32.1272 42.5865 29.9205 45.6526 28.7126C46.1869 28.5268 46.5585 28.4571 46.8837 28.4571C47.2321 28.4571 47.6038 28.5268 48.138 28.7126C51.2042 29.9205 57.8242 32.2665 61.2852 33.4976C61.9588 33.7531 62.1214 34.1016 62.1214 34.9378V50.8723C62.1214 57.6782 58.6837 59.5133 48.231 65.8313C47.5573 66.2494 47.2321 66.3656 46.8837 66.3656ZM38.568 55.1696C38.568 56.9349 39.3578 57.7479 41.007 57.7479H52.7837C54.4329 57.7479 55.2227 56.9349 55.2227 55.1696V46.1106C55.2227 44.531 54.5723 43.7181 53.2715 43.5787V40.9771C53.2715 36.7031 50.6932 33.8461 46.9069 33.8461C43.0975 33.8461 40.5424 36.7031 40.5424 40.9771V43.5787C39.2184 43.7181 38.568 44.531 38.568 46.1106V55.1696ZM43.2833 43.5322V40.7448C43.2833 38.1897 44.7235 36.4941 46.9069 36.4941C49.0904 36.4941 50.5306 38.1897 50.5306 40.7448V43.5322H43.2833Z" fill="white"/>
</g>
<defs>
<filter id="filter0_d_872_121" x="23.2559" y="24.0205" width="47.2793" height="55.2695" filterUnits="userSpaceOnUse" color-interpolation-filters="sRGB">
<feFlood flood-opacity="0" result="BackgroundImageFix"/>
<feColorMatrix in="SourceAlpha" type="matrix" values="0 0 0 0 0 0 0 0 0 0 0 0 0 0 0 0 0 0 127 0" result="hardAlpha"/>
<feOffset dy="4"/>
<feGaussianBlur stdDeviation="2"/>
<feComposite in2="hardAlpha" operator="out"/>
<feColorMatrix type="matrix" values="0 0 0 0 0 0 0 0 0 0 0 0 0 0 0 0 0 0 0.25 0"/>
<feBlend mode="normal" in2="BackgroundImageFix" result="effect1_dropShadow_872_121"/>
<feBlend mode="normal" in="SourceGraphic" in2="effect1_dropShadow_872_121" result="shape"/>
</filter>
<linearGradient id="paint0_linear_872_121" x1="47.5" y1="0" x2="47.5" y2="95" gradientUnits="userSpaceOnUse">
<stop stop-color="#0DB1FF"/>
<stop offset="1" stop-color="#2270E7"/>
</linearGradient>
</defs>
</svg>
