<svg width="95" height="95" viewBox="0 0 95 95" fill="none" xmlns="http://www.w3.org/2000/svg">
<path d="M95 47.5C95 73.7335 73.7335 95 47.5 95C21.2665 95 0 73.7335 0 47.5C0 21.2665 21.2665 0 47.5 0C73.7335 0 95 21.2665 95 47.5Z" fill="url(#paint0_linear_872_162)"/>
<g filter="url(#filter0_d_872_162)">
<path d="M34.2874 66.8216L56.9806 70.8631C61.3279 71.6272 64 69.154 64 64.4087V39.6366C64 37.3443 63.4217 35.7961 62.2252 34.7304V31.0307C62.2252 26.5065 59.1742 24.2947 54.129 25.1996L33.6493 28.839C31.4158 29.1205 30 30.8497 30 33.4636V61.835C30 64.6098 31.4757 66.3189 34.2874 66.8216ZM57.4991 32.8202L44.8563 30.5682L55.3654 28.7786C57.2399 28.477 58.3765 29.2411 58.3765 30.8698V32.9811C58.0974 32.9207 57.7982 32.8604 57.4991 32.8202ZM35.4639 62.8403C34.5067 62.6795 34.068 62.0964 34.068 61.1312V34.4489C34.068 33.4234 34.746 32.8805 35.8428 33.0816L57.1801 36.8618C58.9947 37.1835 59.932 37.9475 59.932 39.5963V64.0065C59.932 65.9972 58.7754 67.0025 56.9009 66.6607L35.4639 62.8403ZM36.6006 42.3913C36.6006 44.2009 39.4323 44.2009 39.4323 42.4918V39.898C39.4323 39.3953 39.7114 39.1741 40.2698 39.2746L42.7226 39.717C44.5572 40.0387 44.9361 37.2639 43.3009 36.9623L39.0933 36.2183C37.5578 35.9569 36.6006 36.6406 36.6006 38.1285V42.3913ZM54.5677 45.4475C54.5677 47.2572 57.3994 47.4382 57.3994 45.4475V42.1902C57.3994 40.28 56.4821 39.3148 54.2487 38.9127L52.1548 38.5307C50.2006 38.1888 49.7419 40.9636 51.6762 41.3055L53.3114 41.587C54.3883 41.788 54.5677 42.3913 54.5677 43.0146V45.4475ZM39.4323 54.536C39.4323 52.7063 36.6006 52.5454 36.6006 54.536V57.7934C36.6006 59.7036 37.5179 60.6687 39.7513 61.0508L41.8452 61.4328C43.7994 61.7746 44.2581 59.0199 42.3238 58.6781L40.6886 58.3765C39.6117 58.1955 39.4323 57.5722 39.4323 56.9489V54.536ZM57.3994 57.5923C57.3994 55.7827 54.5677 55.7626 54.5677 57.4717V60.0856C54.5677 60.5682 54.2886 60.7894 53.7501 60.6888L51.2974 60.2666C49.4628 59.9248 49.0639 62.7197 50.6991 63.0012L54.9067 63.7451C56.4422 64.0266 57.3994 63.3229 57.3994 61.835V57.5923Z" fill="white"/>
</g>
<defs>
<filter id="filter0_d_872_162" x="26" y="25" width="42" height="54" filterUnits="userSpaceOnUse" color-interpolation-filters="sRGB">
<feFlood flood-opacity="0" result="BackgroundImageFix"/>
<feColorMatrix in="SourceAlpha" type="matrix" values="0 0 0 0 0 0 0 0 0 0 0 0 0 0 0 0 0 0 127 0" result="hardAlpha"/>
<feOffset dy="4"/>
<feGaussianBlur stdDeviation="2"/>
<feComposite in2="hardAlpha" operator="out"/>
<feColorMatrix type="matrix" values="0 0 0 0 0 0 0 0 0 0 0 0 0 0 0 0 0 0 0.25 0"/>
<feBlend mode="normal" in2="BackgroundImageFix" result="effect1_dropShadow_872_162"/>
<feBlend mode="normal" in="SourceGraphic" in2="effect1_dropShadow_872_162" result="shape"/>
</filter>
<linearGradient id="paint0_linear_872_162" x1="47.5" y1="0" x2="47.5" y2="95" gradientUnits="userSpaceOnUse">
<stop stop-color="#0DB1FF"/>
<stop offset="1" stop-color="#2270E7"/>
</linearGradient>
</defs>
</svg>
