<svg width="95" height="95" viewBox="0 0 95 95" fill="none" xmlns="http://www.w3.org/2000/svg">
<circle cx="47.5" cy="47.5" r="47.5" fill="url(#paint0_linear_872_138)"/>
<g filter="url(#filter0_d_872_138)">
<path d="M45.7873 68.8986C48.5643 68.8986 51.2608 68.3308 53.7359 67.2762C52.7901 66.2419 52.0657 65.0251 51.5425 63.7272C49.7515 64.3964 47.8197 64.7817 45.7873 64.7817C36.5306 64.7817 29.1051 57.2781 29.1051 47.9493C29.1051 38.6205 36.5105 31.1371 45.7671 31.1371C54.1384 31.1371 61.0407 37.3023 62.2481 45.394C63.4957 45.1912 65.1458 45.2521 66.4136 45.5765C65.2263 35.1931 56.352 27 45.7671 27C34.3774 27 25 36.4911 25 47.9493C25 59.4278 34.3975 68.8986 45.7873 68.8986ZM35.6049 50.464H45.7671C46.6727 50.464 47.3569 49.7542 47.3569 48.8619V35.5582C47.3569 34.6659 46.6727 33.9561 45.7671 33.9561C44.8817 33.9561 44.1774 34.6659 44.1774 35.5582V47.2598H35.6049C34.6994 47.2598 34.0152 47.9493 34.0152 48.8619C34.0152 49.7542 34.6994 50.464 35.6049 50.464ZM63.6366 69C69.271 69 74 64.2545 74 58.5558C74 52.8368 69.3113 48.1318 63.6366 48.1318C57.9618 48.1318 53.2731 52.8368 53.2731 58.5558C53.2731 64.295 57.9618 69 63.6366 69ZM62.4292 64.7209C62.0468 64.7209 61.584 64.5587 61.2821 64.2342L57.499 60.0565C57.2977 59.8537 57.1569 59.4481 57.1569 59.1033C57.1569 58.2313 57.8209 57.6634 58.5856 57.6634C59.0485 57.6634 59.4107 57.846 59.6723 58.1299L62.3487 61.0908L67.4801 53.8914C67.7618 53.5263 68.1844 53.2627 68.6875 53.2627C69.4723 53.2627 70.1363 53.8914 70.1363 54.7026C70.1363 54.9459 70.0357 55.2704 69.8345 55.534L63.6164 64.1733C63.375 64.4978 62.9121 64.7209 62.4292 64.7209Z" fill="white"/>
</g>
<defs>
<filter id="filter0_d_872_138" x="21" y="27" width="57" height="50" filterUnits="userSpaceOnUse" color-interpolation-filters="sRGB">
<feFlood flood-opacity="0" result="BackgroundImageFix"/>
<feColorMatrix in="SourceAlpha" type="matrix" values="0 0 0 0 0 0 0 0 0 0 0 0 0 0 0 0 0 0 127 0" result="hardAlpha"/>
<feOffset dy="4"/>
<feGaussianBlur stdDeviation="2"/>
<feComposite in2="hardAlpha" operator="out"/>
<feColorMatrix type="matrix" values="0 0 0 0 0 0 0 0 0 0 0 0 0 0 0 0 0 0 0.25 0"/>
<feBlend mode="normal" in2="BackgroundImageFix" result="effect1_dropShadow_872_138"/>
<feBlend mode="normal" in="SourceGraphic" in2="effect1_dropShadow_872_138" result="shape"/>
</filter>
<linearGradient id="paint0_linear_872_138" x1="47.5" y1="0" x2="47.5" y2="95" gradientUnits="userSpaceOnUse">
<stop stop-color="#0DB1FF"/>
<stop offset="1" stop-color="#2270E7"/>
</linearGradient>
</defs>
</svg>
