<svg width="95" height="95" viewBox="0 0 95 95" fill="none" xmlns="http://www.w3.org/2000/svg">
<circle cx="47.5" cy="47.5" r="47.5" fill="url(#paint0_linear_872_146)"/>
<g filter="url(#filter0_d_872_146)">
<path d="M47.5 74.2002C62.3975 74.2002 74.7373 61.8867 74.7373 46.9629C74.7373 32.0654 62.3975 19.7256 47.4736 19.7256C32.5762 19.7256 20.2627 32.0654 20.2627 46.9629C20.2627 61.8867 32.6025 74.2002 47.5 74.2002ZM47.5 68.8477C35.3711 68.8477 25.6416 59.0918 25.6416 46.9629C25.6416 34.834 35.3447 25.1045 47.4736 25.1045C59.6025 25.1045 69.3584 34.834 69.3848 46.9629C69.3848 59.0918 59.6289 68.8477 47.5 68.8477ZM42.3057 36.2578C42.3057 35.6777 42.7012 35.2822 43.334 35.2822H51.6924C52.3252 35.2822 52.7207 35.6777 52.7207 36.2578V37.5234H42.3057V36.2578ZM47.5 45.2754C52.6152 45.2754 57.4141 44.5371 62.1602 42.5596V41.6367C62.1602 38.8945 60.7891 37.5234 58.0205 37.5234H55.4102V36.1523C55.4102 34.0693 54.0654 32.8301 51.8506 32.8301H43.1494C40.9346 32.8301 39.5898 34.0693 39.5898 36.1523V37.5234H36.9795C34.2373 37.5234 32.8398 38.8945 32.8398 41.6367V42.5596C37.6123 44.5371 42.3848 45.2754 47.5 45.2754ZM36.9795 58.4326H58.0205C60.7891 58.4326 62.1602 57.0615 62.1602 54.3193V45.0645C58.2578 46.4883 54.6982 47.1475 51.0859 47.4111V48.4395C51.0859 49.415 50.5059 49.9424 49.5566 49.9424H45.4697C44.5205 49.9424 43.9404 49.415 43.9404 48.4395V47.4111C40.3018 47.1475 36.7422 46.4883 32.8398 45.0645V54.3193C32.8398 57.0615 34.2373 58.4326 36.9795 58.4326Z" fill="white"/>
</g>
<defs>
<filter id="filter0_d_872_146" x="16.2627" y="19.7256" width="62.4746" height="62.4746" filterUnits="userSpaceOnUse" color-interpolation-filters="sRGB">
<feFlood flood-opacity="0" result="BackgroundImageFix"/>
<feColorMatrix in="SourceAlpha" type="matrix" values="0 0 0 0 0 0 0 0 0 0 0 0 0 0 0 0 0 0 127 0" result="hardAlpha"/>
<feOffset dy="4"/>
<feGaussianBlur stdDeviation="2"/>
<feComposite in2="hardAlpha" operator="out"/>
<feColorMatrix type="matrix" values="0 0 0 0 0 0 0 0 0 0 0 0 0 0 0 0 0 0 0.25 0"/>
<feBlend mode="normal" in2="BackgroundImageFix" result="effect1_dropShadow_872_146"/>
<feBlend mode="normal" in="SourceGraphic" in2="effect1_dropShadow_872_146" result="shape"/>
</filter>
<linearGradient id="paint0_linear_872_146" x1="47.5" y1="0" x2="47.5" y2="95" gradientUnits="userSpaceOnUse">
<stop stop-color="#0DB1FF"/>
<stop offset="1" stop-color="#2270E7"/>
</linearGradient>
</defs>
</svg>
