<svg width="12" height="13" viewBox="0 0 12 13" fill="none" xmlns="http://www.w3.org/2000/svg">
<path d="M0 3.49305C0.06 3.27305 0.12 3.05305 0.26 2.87305C0.52 2.55305 0.88 2.37305 1.3 2.37305C3.38 2.37305 5.48 2.37305 7.56 2.37305C8.32 2.37305 8.84 2.91305 8.86 3.67305C8.86 3.91305 8.86 4.17305 8.86 4.41305C8.86 4.45305 8.86 4.49305 8.86 4.55305C8.9 4.53305 8.94 4.51305 8.98 4.49305C9.82 4.03305 10.66 3.57305 11.5 3.11305C11.52 3.09305 11.54 3.09305 11.58 3.07305C11.8 2.95305 12 3.05305 12 3.31305C12 4.15305 12 4.99305 12 5.81305C12 6.87305 12 7.91305 12 8.97305C12 9.27305 11.78 9.37305 11.54 9.25305C10.7 8.77305 9.86 8.33305 9.02 7.87305C8.98 7.85305 8.94 7.83305 8.88 7.79305C8.88 7.85305 8.88 7.89305 8.88 7.93305C8.88 8.21305 8.88 8.49305 8.88 8.77305C8.84 9.39305 8.32 9.93305 7.68 9.95305C7.58 9.95305 7.46 9.95305 7.36 9.95305C5.38 9.95305 3.4 9.93305 1.42 9.95305C0.7 9.95305 0.12 9.47305 0.04 8.85305C0.04 8.85305 0.04 8.83305 0.02 8.83305C0 7.05305 0 5.27305 0 3.49305ZM4.44 9.43305C5.48 9.43305 6.5 9.43305 7.54 9.43305C8 9.43305 8.38 9.11305 8.38 8.59305C8.38 6.97305 8.38 5.33305 8.38 3.71305C8.38 3.19305 8.06 2.87305 7.54 2.87305C5.48 2.87305 3.42 2.87305 1.36 2.87305C0.84 2.87305 0.52 3.19305 0.52 3.69305C0.52 5.31305 0.52 6.95305 0.52 8.57305C0.52 8.65305 0.52 8.73305 0.54 8.81305C0.64 9.19305 0.92 9.39305 1.34 9.39305C2.36 9.43305 3.4 9.43305 4.44 9.43305ZM11.48 3.71305C11.46 3.71305 11.44 3.73305 11.44 3.73305C10.6 4.17305 9.76 4.63305 8.94 5.09305C8.9 5.11305 8.88 5.19305 8.88 5.23305C8.88 5.85305 8.88 6.47305 8.88 7.09305C8.88 7.17305 8.9 7.21305 8.98 7.25305C9.78 7.69305 10.58 8.13305 11.4 8.57305C11.42 8.59305 11.46 8.61305 11.5 8.63305C11.48 6.97305 11.48 5.35305 11.48 3.71305Z" fill="white"/>
</svg>
