<svg width="15" height="16" viewBox="0 0 15 16" fill="none" xmlns="http://www.w3.org/2000/svg">
<g clip-path="url(#clip0_2489_819)">
<path d="M0 8.03575C0.03 7.76575 0.06 7.49575 0.12 7.22575C0.42 5.54575 1.23 4.13575 2.55 3.02575C3.99 1.79575 5.67 1.22575 7.53 1.34575C10.41 1.49575 12.99 3.32575 13.95 6.23575C14.28 7.25575 13.98 8.33575 13.14 9.02575C13.11 9.05575 13.08 9.08575 13.05 9.11575C13.32 9.35575 13.59 9.62575 13.86 9.86575C14.1 10.0757 14.31 10.2857 14.55 10.4957C15.15 11.0658 15.15 11.9358 14.61 12.5058C14.04 13.0758 13.17 13.0457 12.6 12.4458C11.76 11.5458 10.89 10.6458 10.05 9.74575C9.96 9.65575 9.9 9.65575 9.78 9.68575C9.36 9.86575 9.15 10.2857 9.21 10.7357C9.3 11.2457 9.66 11.5457 10.14 11.5757C10.29 11.5757 10.44 11.5758 10.59 11.6357C11.25 11.8158 11.64 12.2657 11.76 12.9257C11.88 13.5557 11.67 14.0957 11.13 14.4558C10.29 15.0557 9.36 15.4157 8.34 15.5657C6.54 15.8657 4.86 15.5358 3.33 14.5457C1.53 13.3757 0.45 11.7257 0.09 9.59575C0.06 9.38575 0.03 9.17575 0 8.93575C0 8.63575 0 8.33575 0 8.03575ZM9.27 8.90575C8.97 8.57575 8.64 8.24575 8.31 7.88575C8.28 7.85575 8.22 7.85575 8.16 7.85575C7.89 7.85575 7.65 7.88575 7.38 7.82575C6.6 7.67575 6.06 7.19575 5.79 6.44575C5.43 5.51575 5.25 4.52575 5.13 3.53575C5.1 3.20575 5.31 2.96575 5.64 3.02575C6 3.08575 6.33 3.11575 6.63 3.17575C7.35 3.29575 8.07 3.47575 8.76 3.77575C9.66 4.16575 10.08 5.15575 9.96 6.02575C9.96 6.11575 9.96 6.17575 10.02 6.23575C10.44 6.62575 10.89 7.04575 11.31 7.46575C11.67 7.79575 12.03 8.12575 12.36 8.45575C13.02 8.09575 13.32 7.25575 13.08 6.50575C12.06 3.29575 8.76 1.64575 5.73 2.36575C2.52 3.14575 0.45 6.20575 0.96 9.47575C1.29 11.5457 2.4 13.0457 4.23 14.0357C5.4 14.6657 6.63 14.8457 7.95 14.6958C8.88 14.5758 9.75 14.2457 10.56 13.7358C10.83 13.5557 10.95 13.2558 10.86 12.9558C10.77 12.6558 10.53 12.4458 10.2 12.4458C10.11 12.4458 9.99 12.4457 9.9 12.4157C9.21 12.2957 8.7 11.9058 8.43 11.2458C8.16 10.5858 8.28 9.95575 8.73 9.38575C8.88 9.20575 9.09 9.08575 9.27 8.90575ZM6.09 3.98575C6.09 4.07575 6.12 4.13575 6.12 4.19575C6.24 4.88575 6.36 5.57575 6.63 6.20575C6.87 6.80575 7.38 7.10575 8.01 7.01575C8.58 6.92575 9.03 6.47575 9.09 5.87575C9.15 5.39575 8.94 4.76575 8.34 4.55575C8.01 4.43575 7.68 4.31575 7.35 4.25575C6.96 4.13575 6.54 4.07575 6.09 3.98575ZM9.15 7.49575C9.72 8.12575 10.35 8.75575 10.95 9.38575C11.7 10.1957 12.48 11.0057 13.23 11.8157C13.38 11.9657 13.56 12.0257 13.77 11.9657C13.95 11.9057 14.07 11.7557 14.13 11.5757C14.16 11.3657 14.1 11.2158 13.95 11.0957C12.54 9.74575 11.1 8.39575 9.69 7.07575C9.66 7.04575 9.63 7.01575 9.63 7.04575C9.45 7.19575 9.3 7.34575 9.15 7.49575Z" fill="white"/>
<path d="M3.20984 9.95484C2.30984 9.95484 1.58984 9.23484 1.58984 8.33484C1.58984 7.43484 2.30984 6.71484 3.20984 6.71484C4.10984 6.71484 4.82984 7.43484 4.82984 8.33484C4.82984 9.23484 4.10984 9.95484 3.20984 9.95484ZM3.92984 8.33484C3.92984 7.91484 3.59984 7.58484 3.20984 7.58484C2.78984 7.58484 2.45984 7.91484 2.45984 8.30484C2.45984 8.72484 2.78984 9.05484 3.17984 9.05484C3.59984 9.08484 3.92984 8.75484 3.92984 8.33484Z" fill="white"/>
<path d="M6.05994 10.5566C6.95994 10.5566 7.67994 11.2766 7.67994 12.1766C7.67994 13.0766 6.95994 13.7966 6.05994 13.7966C5.15994 13.7966 4.43994 13.0766 4.43994 12.1766C4.43994 11.2766 5.18994 10.5566 6.05994 10.5566ZM6.80994 12.1766C6.80994 11.7566 6.47994 11.4566 6.05994 11.4566C5.63994 11.4566 5.30994 11.7866 5.30994 12.2066C5.30994 12.6266 5.63994 12.9566 6.05994 12.9266C6.47994 12.8966 6.80994 12.5666 6.80994 12.1766Z" fill="white"/>
</g>
<defs>
<clipPath id="clip0_2489_819">
<rect width="15" height="15" fill="white" transform="translate(0 0.986328)"/>
</clipPath>
</defs>
</svg>
