<svg width="14" height="14" viewBox="0 0 14 14" fill="none" xmlns="http://www.w3.org/2000/svg">
<path d="M1.79624 13.0879C2.1991 13.0879 2.55548 12.9479 2.81889 12.668L6.87848 8.59387L10.9381 12.668C11.2015 12.9324 11.5424 13.0879 11.9607 13.0879C12.7509 13.0879 13.3707 12.4659 13.3707 11.6728C13.3707 11.2841 13.2158 10.942 12.9524 10.6776L8.87729 6.58789L12.9524 2.48263C13.2468 2.18717 13.3862 1.87617 13.3862 1.50296C13.3862 0.7099 12.7664 0.0878906 11.9762 0.0878906C11.5889 0.0878906 11.2635 0.212293 10.9691 0.507747L6.87848 4.59746L2.7879 0.523297C2.52449 0.243393 2.1991 0.103441 1.79624 0.103441C1.00602 0.103441 0.38623 0.7099 0.38623 1.50296C0.38623 1.89172 0.541177 2.23382 0.82008 2.49818L4.87967 6.58789L0.82008 10.6932C0.541177 10.942 0.38623 11.2996 0.38623 11.6728C0.38623 12.4659 1.00602 13.0879 1.79624 13.0879Z" fill="white"/>
</svg>
