<svg width="12" height="8" viewBox="0 0 12 8" fill="none" xmlns="http://www.w3.org/2000/svg">
<path d="M6 0.796085C5.76325 0.802341 5.54679 0.883665 5.37091 1.05883L0.229988 5.92579C0.0811721 6.06342 8.31279e-08 6.23858 6.50804e-08 6.44502C2.89854e-08 6.8579 0.351748 7.18945 0.798196 7.18945C1.01466 7.18945 1.22435 7.10813 1.37993 6.96425L5.99324 2.57897L10.6201 6.96425C10.7756 7.10187 10.9786 7.18945 11.2018 7.18945C11.6483 7.18945 12 6.8579 12 6.44502C12 6.23858 11.9188 6.06342 11.77 5.92579L6.62232 1.05883C6.43968 0.883666 6.23675 0.796085 6 0.796085Z" fill="white"/>
</svg>
