<svg width="11" height="8" viewBox="0 0 11 8" fill="none" xmlns="http://www.w3.org/2000/svg">
<path d="M1.58462 8C1.89452 8 2.16865 7.91388 2.37128 7.74163L5.49404 5.23445L8.61681 7.74163C8.81943 7.90431 9.08165 8 9.40346 8C10.0113 8 10.4881 7.61722 10.4881 7.12919C10.4881 6.88995 10.3689 6.67943 10.1663 6.51675L7.03159 4L10.1663 1.47368C10.3927 1.29187 10.5 1.10048 10.5 0.870813C10.5 0.382775 10.0232 0 9.41538 0C9.1174 0 8.8671 0.076555 8.64064 0.258373L5.49404 2.77512L2.34744 0.267943C2.14482 0.0956938 1.89452 0.00956938 1.58462 0.00956938C0.976758 0.00956938 0.5 0.382775 0.5 0.870813C0.5 1.11005 0.619189 1.32057 0.833731 1.48325L3.9565 4L0.833731 6.52632C0.619189 6.67943 0.5 6.89952 0.5 7.12919C0.5 7.61722 0.976758 8 1.58462 8Z" fill="white"/>
</svg>
