<svg width="12" height="14" viewBox="0 0 12 14" fill="none" xmlns="http://www.w3.org/2000/svg">
<path d="M5.83993 13.9006C5.55497 13.8443 5.31574 13.6895 5.06948 13.5453C3.59895 12.6974 2.13193 11.8461 0.661391 11.0017C0.214602 10.7449 0 10.3685 0 9.85838C0 8.06066 0.00351803 6.25943 0 4.46172C0 3.95161 0.2146 3.57518 0.657872 3.31836C2.2234 2.41774 3.78892 1.51361 5.35092 0.609477C5.78012 0.359697 6.20581 0.356178 6.63501 0.602441C8.21108 1.51361 9.78716 2.42126 11.3632 3.33243C11.7889 3.57869 12 3.94809 12 4.43709C12 6.2524 12 8.07122 12 9.88652C12 10.3755 11.7889 10.7449 11.3632 10.9912C9.78716 11.8988 8.2146 12.8135 6.63501 13.7177C6.49077 13.8021 6.31838 13.8408 6.16007 13.9041C6.05101 13.9006 5.94547 13.9006 5.83993 13.9006ZM0.851364 4.67632C0.847846 4.71502 0.844327 4.72909 0.844327 4.73964C0.844327 6.45996 0.844327 8.18028 0.844327 9.9006C0.844327 10.073 0.928761 10.182 1.07652 10.2665C2.53298 11.1038 3.98593 11.9446 5.43888 12.7819C5.47757 12.8065 5.51979 12.8241 5.5796 12.8557C5.5796 12.7995 5.5796 12.7608 5.5796 12.7256C5.5796 10.9877 5.5796 9.24976 5.58311 7.51185C5.58311 7.4239 5.55145 7.38168 5.48109 7.33947C4.0387 6.50921 2.59631 5.67544 1.15392 4.84167C1.05541 4.7889 0.960423 4.73613 0.851364 4.67632ZM6.4204 12.8628C6.48373 12.8276 6.52947 12.803 6.57168 12.7783C8.01407 11.9446 9.45647 11.1108 10.9024 10.2841C11.0853 10.1785 11.1592 10.0448 11.1592 9.83727C11.1557 8.16972 11.1557 6.50218 11.1557 4.83463C11.1557 4.7889 11.1557 4.74316 11.1557 4.6728C11.0818 4.71502 11.029 4.74316 10.9763 4.77131C9.49516 5.62619 8.01759 6.48107 6.53298 7.33243C6.44151 7.3852 6.41689 7.43797 6.41689 7.53648C6.42041 9.25679 6.4204 10.9771 6.4204 12.6974C6.4204 12.7467 6.4204 12.7924 6.4204 12.8628ZM1.27353 3.93753C1.3263 3.97271 1.36148 3.99734 1.40018 4.01845C2.89534 4.88036 4.3905 5.74228 5.88567 6.61124C5.97362 6.66401 6.03694 6.66049 6.12137 6.60772C7.6095 5.74228 9.10114 4.88388 10.5928 4.02197C10.635 3.99734 10.6737 3.97271 10.723 3.94105C10.6878 3.91994 10.6667 3.90235 10.6456 3.8918C9.16799 3.04044 7.69393 2.18907 6.21988 1.33419C6.06509 1.24624 5.92788 1.24976 5.77661 1.33771C5.12225 1.72117 4.46438 2.0976 3.80651 2.47403C2.96922 2.95952 2.12841 3.44149 1.27353 3.93753Z" fill="white"/>
</svg>
