<svg xmlns="http://www.w3.org/2000/svg" width="10" height="10" viewBox="0 0 10 10" fill="none">
<path d="M0.26135 10H0.957774C1.11726 10 1.18106 9.96641 1.29801 9.87125L1.6542 9.58575C1.8509 9.79288 2.14329 9.83766 2.43568 9.70331L4.19535 8.9308C4.32826 8.87482 4.39737 8.81884 4.48243 8.72927L9.61789 3.36087C10.1283 2.82347 10.1283 2.17971 9.61258 1.63112L8.45896 0.410771C7.94329 -0.132226 7.33192 -0.137824 6.82156 0.399576L1.6861 5.76238C1.59572 5.85754 1.54787 5.92472 1.4894 6.07026L0.745125 7.91758C0.622852 8.21426 0.65475 8.50536 0.85145 8.73487L0.0859144 9.56896C-0.0788884 9.75369 0.000854901 10 0.26135 10ZM7.41166 1.1385C7.54989 0.998553 7.71469 0.992955 7.84228 1.1329L8.92679 2.28048C9.05969 2.42042 9.05437 2.58836 8.91084 2.73391L8.56528 3.09777L7.06079 1.50796L7.41166 1.1385ZM2.62707 6.14863L6.48664 2.11254L7.98582 3.70235L4.13156 7.73844L2.62707 6.14863ZM2.32936 8.71248C2.22835 8.75166 2.15924 8.75167 2.06886 8.6565L1.73394 8.30943C1.64888 8.21986 1.64888 8.13589 1.6861 8.04073L2.16456 6.87077L3.44045 8.22546L2.32936 8.71248Z" fill="white"/>
</svg>