<svg width="11" height="11" viewBox="0 0 11 11" fill="none" xmlns="http://www.w3.org/2000/svg">
<path d="M0.76135 10.5H1.45777C1.61726 10.5 1.68106 10.4664 1.79801 10.3712L2.1542 10.0858C2.3509 10.2929 2.64329 10.3377 2.93568 10.2033L4.69535 9.4308C4.82826 9.37482 4.89737 9.31884 4.98243 9.22927L10.1179 3.86087C10.6283 3.32347 10.6283 2.67971 10.1126 2.13112L8.95896 0.910771C8.44329 0.367774 7.83192 0.362176 7.32156 0.899576L2.1861 6.26238C2.09572 6.35754 2.04787 6.42472 1.9894 6.57026L1.24513 8.41758C1.12285 8.71426 1.15475 9.00536 1.35145 9.23487L0.585914 10.069C0.421112 10.2537 0.500855 10.5 0.76135 10.5ZM7.91166 1.6385C8.04989 1.49855 8.21469 1.49295 8.34228 1.6329L9.42679 2.78048C9.55969 2.92042 9.55437 3.08836 9.41084 3.23391L9.06528 3.59777L7.56079 2.00796L7.91166 1.6385ZM3.12707 6.64863L6.98664 2.61254L8.48582 4.20235L4.63156 8.23844L3.12707 6.64863ZM2.82936 9.21248C2.72835 9.25166 2.65924 9.25167 2.56886 9.1565L2.23394 8.80943C2.14888 8.71986 2.14888 8.63589 2.1861 8.54073L2.66456 7.37077L3.94045 8.72546L2.82936 9.21248Z" fill="white"/>
</svg>
