<svg width="11" height="11" viewBox="0 0 11 11" fill="none" xmlns="http://www.w3.org/2000/svg">
<g clip-path="url(#clip0_2489_850)">
<path d="M9.9 5.38633H6.1V1.58633C6.1 1.24633 5.84 0.986328 5.5 0.986328C5.16 0.986328 4.9 1.24633 4.9 1.58633V5.38633H1.1C0.76 5.38633 0.5 5.64633 0.5 5.98633C0.5 6.32633 0.76 6.58633 1.1 6.58633H4.9V10.3863C4.9 10.7263 5.16 10.9863 5.5 10.9863C5.84 10.9863 6.1 10.7263 6.1 10.3863V6.58633H9.9C10.24 6.58633 10.5 6.32633 10.5 5.98633C10.5 5.64633 10.24 5.38633 9.9 5.38633Z" fill="white"/>
</g>
<defs>
<clipPath id="clip0_2489_850">
<rect width="10" height="10" fill="white" transform="translate(0.5 0.986328)"/>
</clipPath>
</defs>
</svg>
