<svg width="12" height="13" viewBox="0 0 12 13" fill="none" xmlns="http://www.w3.org/2000/svg">
<path d="M12.0001 5.61052C11.9041 5.92252 11.6881 6.01852 11.3761 6.01852C10.2721 6.01852 9.16812 6.01852 8.06412 6.01852C7.80012 6.01852 7.60812 5.89852 7.53612 5.68252C7.46412 5.46652 7.51212 5.29852 7.68012 5.13052C7.99212 4.81852 8.30412 4.50652 8.64012 4.17052C8.66412 4.14652 8.71212 4.12252 8.76012 4.07452C8.52012 3.90652 8.32812 3.73852 8.11212 3.59452C6.48012 2.61052 4.41612 2.87452 3.09612 4.26652C2.80812 4.55452 2.59212 4.89052 2.42412 5.27452C2.35212 5.46652 2.25612 5.63452 2.18412 5.82652C2.13612 5.94652 2.06412 5.99452 1.92012 5.99452C1.41612 5.99452 0.912119 5.99452 0.432119 5.99452C0.216119 5.99452 0.120119 5.85052 0.168119 5.63452C0.360119 4.84252 0.696119 4.12252 1.17612 3.45052C1.72812 2.70652 2.40012 2.10652 3.19212 1.67452C3.74412 1.36252 4.34412 1.17052 4.94412 1.07452C5.13612 1.05052 5.32812 1.02652 5.54412 1.00252C5.59212 1.00252 5.64012 0.978516 5.71212 0.978516C5.92812 0.978516 6.14412 0.978516 6.36012 0.978516C6.38412 0.978516 6.43212 1.00252 6.45612 1.00252C7.48812 1.07452 8.42412 1.41052 9.28812 1.98652C9.57612 2.17852 9.86412 2.41852 10.1761 2.65852C10.2001 2.63452 10.2001 2.58652 10.2241 2.56252C10.5361 2.25052 10.8241 1.96252 11.1361 1.67452C11.3281 1.48252 11.5921 1.45852 11.7841 1.60252C11.8801 1.67452 11.9281 1.79452 12.0001 1.89052C12.0001 3.16252 12.0001 4.38652 12.0001 5.61052Z" fill="#D4D4D4"/>
<path d="M1.848 11.3698C1.704 11.5138 1.56 11.6578 1.416 11.8258C1.224 12.0178 1.056 12.1858 0.864 12.3778C0.696 12.5458 0.504 12.5938 0.312 12.4978C0.12 12.4018 0 12.2338 0 12.0178C0 10.8658 0 9.71376 0 8.56176C0 8.24976 0.216 8.03377 0.528 8.03377C0.96 8.03377 1.368 8.03377 1.8 8.03377C2.52 8.03377 3.24 8.03377 3.936 8.03377C4.056 8.03377 4.2 8.05777 4.296 8.12977C4.56 8.29776 4.584 8.65776 4.344 8.89776C4.032 9.20976 3.696 9.54576 3.384 9.85776C3.36 9.88176 3.312 9.90576 3.264 9.92976C3.648 10.3138 4.08 10.5778 4.56 10.7458C5.904 11.2498 7.176 11.0818 8.352 10.2658C8.904 9.88177 9.336 9.37776 9.6 8.72976C9.672 8.56176 9.744 8.36977 9.816 8.20177C9.864 8.08177 9.96 8.00977 10.08 8.00977C10.56 8.00977 11.04 8.00977 11.52 8.00977C11.736 8.00977 11.832 8.15377 11.784 8.34577C11.592 9.13776 11.256 9.90576 10.776 10.5778C10.248 11.3218 9.576 11.8978 8.76 12.3298C8.232 12.6178 7.656 12.8098 7.056 12.9058C5.256 13.1938 3.624 12.7858 2.184 11.6338C2.088 11.5618 1.968 11.4658 1.848 11.3698Z" fill="#D4D4D4"/>
</svg>
