<svg width="19" height="20" viewBox="0 0 19 20" fill="none" xmlns="http://www.w3.org/2000/svg">
<path d="M9.20166 19.0967C14.1851 19.0967 18.2983 14.9834 18.2983 10.0088C18.2983 5.03418 14.1763 0.920898 9.19287 0.920898C4.21826 0.920898 0.11377 5.03418 0.11377 10.0088C0.11377 14.9834 4.22705 19.0967 9.20166 19.0967ZM7.19775 10.2725C7.19775 7.48633 7.90967 4.69141 9.26318 2.74023C13.104 2.77539 16.2065 5.74609 16.4614 9.52539C14.5015 10.8877 11.7065 11.6084 8.91162 11.6084C8.34912 11.6084 7.79541 11.582 7.2417 11.5117C7.21533 11.1074 7.19775 10.6943 7.19775 10.2725ZM5.50146 10.2725C5.50146 10.5889 5.51025 10.8965 5.52783 11.2129C4.17432 10.8877 2.93506 10.3516 1.95068 9.61328C2.11768 6.43164 4.28857 3.8125 7.2417 3.00391C6.09912 5.05176 5.50146 7.66211 5.50146 10.2725ZM8.91162 13.3047C11.5835 13.3047 14.2642 12.6807 16.3296 11.4766C15.6616 14.7988 12.7437 17.2686 9.22803 17.2861C8.39307 16.1875 7.82178 14.7812 7.49658 13.2432C7.9624 13.2783 8.43701 13.3047 8.91162 13.3047ZM2.11768 11.6172C3.18115 12.25 4.42041 12.6982 5.73877 12.9795C5.99365 14.4385 6.45947 15.8096 7.14502 16.9873C4.62256 16.249 2.68896 14.2012 2.11768 11.6172Z" fill="white"/>
</svg>
