<svg width="19" height="18" viewBox="0 0 19 18" fill="none" xmlns="http://www.w3.org/2000/svg">
<path d="M0.315918 15.3674C0.315918 15.7717 0.491699 16.0881 0.852051 16.2903L2.60107 17.3098C2.87354 17.468 3.08447 17.4944 3.42725 17.301L5.14111 16.3079C5.49268 16.1145 5.57178 15.9211 5.57178 15.5784L5.58057 14.4006L9.64111 12.3528L13.6489 14.3743L13.6577 15.5872C13.6577 15.9299 13.7368 16.1233 14.0884 16.3167L15.8022 17.3098C16.145 17.5032 16.356 17.4768 16.6284 17.3186L18.3774 16.2991C18.7378 16.0969 18.9136 15.7805 18.9136 15.3762L18.9312 13.3547C18.9312 13.0383 18.8608 12.8274 18.5181 12.634L16.7866 11.6321C16.4526 11.4475 16.2065 11.4827 15.9341 11.6321L14.1675 12.6604C14.1411 12.678 14.1147 12.6868 14.0884 12.7131L10.4937 10.9026V5.9895L11.8999 5.18091C12.1899 5.01392 12.3218 4.83813 12.3218 4.44263V2.4563C12.3218 2.06079 12.1899 1.8938 11.9175 1.7356L10.1509 0.724854C9.79053 0.522705 9.43896 0.522705 9.0874 0.724854L7.3208 1.72681C7.05713 1.88501 6.90771 2.06079 6.90771 2.4563V4.44263C6.90771 4.82935 7.05713 5.02271 7.33838 5.18091L8.79736 6.01587V10.9026L5.17627 12.7219C5.13232 12.6956 5.09717 12.6692 5.06201 12.6516L3.29541 11.6233C3.02295 11.4739 2.77686 11.4387 2.44287 11.6233L0.711426 12.6252C0.368652 12.8186 0.29834 13.0295 0.29834 13.3459L0.315918 15.3674Z" fill="white"/>
</svg>
