<svg width="12" height="14" viewBox="0 0 12 14" fill="none" xmlns="http://www.w3.org/2000/svg">
<path d="M5.9843 3.1778C5.01048 3.1778 4.06807 3.1778 3.09425 3.1778C2.71729 3.1778 2.62305 3.05214 2.62305 2.70659C2.62305 2.2668 2.62305 1.82701 2.62305 1.38722C2.65446 1.07308 2.78011 0.916016 3.06284 0.916016C5.0419 0.916016 6.98954 0.916016 8.93718 0.916016C9.21991 0.916016 9.37697 1.07308 9.37697 1.35581C9.37697 1.82701 9.37697 2.2668 9.37697 2.73801C9.37697 3.02073 9.25132 3.1778 8.93718 3.1778C7.96336 3.1778 6.98954 3.1778 5.9843 3.1778Z" fill="white"/>
<path d="M5.98689 4.17773C7.21202 4.17773 8.40574 4.17773 9.63087 4.17773C10.0078 4.17773 10.1021 4.30339 10.1021 4.64894C10.1021 5.08873 10.1021 5.52852 10.1021 5.96831C10.1021 6.28245 9.97642 6.4081 9.66228 6.4081C7.21202 6.4081 4.76176 6.4081 2.34291 6.4081C2.02877 6.4081 1.90312 6.28245 1.90312 5.96831C1.90312 5.52852 1.90312 5.05732 1.90312 4.61752C1.8717 4.30339 1.99736 4.17773 2.3115 4.17773C3.53663 4.17773 4.76176 4.17773 5.98689 4.17773Z" fill="white"/>
<path d="M5.99998 7.4082C7.57066 7.4082 9.17275 7.4082 10.7434 7.4082C11.1204 7.4082 11.2461 7.53386 11.2461 7.91082C11.2461 9.57574 11.2461 11.2407 11.2461 12.9056C11.2461 13.2825 11.1204 13.4082 10.7434 13.4082C7.60207 13.4082 4.4293 13.4082 1.28794 13.4082C0.879561 13.4082 0.78532 13.2825 0.78532 12.9056C0.753906 11.2092 0.753906 9.57574 0.753906 7.91082C0.753906 7.50244 0.848147 7.4082 1.28794 7.4082C2.85862 7.4082 4.4293 7.4082 5.99998 7.4082ZM1.50783 12.6229C4.49213 12.6229 7.47642 12.6229 10.4607 12.6229C10.4607 11.115 10.4607 9.63857 10.4607 8.16213C7.47642 8.16213 4.49213 8.16213 1.50783 8.16213C1.50783 9.63857 1.50783 11.115 1.50783 12.6229Z" fill="white"/>
<path d="M7.47285 10.9004C7.7962 10.9004 8.15548 10.9004 8.47884 10.9004C8.76626 10.9004 8.9459 11.0575 8.9459 11.2774C8.9459 11.4972 8.76626 11.6543 8.47884 11.6543C7.7962 11.6543 7.11357 11.6543 6.43093 11.6543C6.14351 11.6543 5.96387 11.4972 5.96387 11.2774C5.96387 11.0575 6.14351 10.9004 6.43093 10.9004C6.79021 10.9004 7.1495 10.9004 7.47285 10.9004Z" fill="white"/>
<path d="M9.84422 10.9004C10.0957 10.9004 10.2754 11.0575 10.2754 11.2774C10.2754 11.4658 10.0957 11.6543 9.84422 11.6543C9.59273 11.6543 9.41309 11.4972 9.41309 11.2774C9.41309 11.0575 9.59273 10.9004 9.84422 10.9004Z" fill="white"/>
</svg>
