<svg width="19" height="21" viewBox="0 0 19 21" fill="none" xmlns="http://www.w3.org/2000/svg">
<path d="M5.51025 20.0156H13.5874C14.9409 20.0156 15.811 19.1982 15.8813 17.8447L16.4702 5.18848H17.437C17.8853 5.18848 18.228 4.83691 18.228 4.39746C18.228 3.95801 17.8765 3.62402 17.437 3.62402H13.5347V2.30566C13.5347 0.952148 12.6733 0.161133 11.2056 0.161133H7.86572C6.39795 0.161133 5.53662 0.952148 5.53662 2.30566V3.62402H1.65186C1.2124 3.62402 0.86084 3.9668 0.86084 4.39746C0.86084 4.8457 1.2124 5.18848 1.65186 5.18848H2.61865L3.20752 17.8447C3.27783 19.207 4.13916 20.0156 5.51025 20.0156ZM7.18018 2.38477C7.18018 1.93652 7.49658 1.64648 7.97998 1.64648H11.0913C11.5747 1.64648 11.8911 1.93652 11.8911 2.38477V3.62402H7.18018V2.38477ZM5.68604 18.4424C5.20264 18.4424 4.85107 18.082 4.82471 17.5635L4.23584 5.18848H14.8267L14.2554 17.5635C14.2378 18.0908 13.895 18.4424 13.394 18.4424H5.68604ZM6.95166 17.0273C7.32959 17.0273 7.56689 16.79 7.55811 16.4385L7.29443 7.24512C7.28564 6.89355 7.03955 6.66504 6.6792 6.66504C6.31006 6.66504 6.07275 6.90234 6.08154 7.25391L6.34521 16.4473C6.354 16.7988 6.6001 17.0273 6.95166 17.0273ZM9.54443 17.0273C9.91357 17.0273 10.1685 16.7988 10.1685 16.4473V7.25391C10.1685 6.90234 9.91357 6.66504 9.54443 6.66504C9.17529 6.66504 8.9292 6.90234 8.9292 7.25391V16.4473C8.9292 16.7988 9.17529 17.0273 9.54443 17.0273ZM12.1372 17.0361C12.4888 17.0361 12.7349 16.7988 12.7437 16.4473L13.0073 7.25391C13.0161 6.90234 12.7788 6.67383 12.4097 6.67383C12.0493 6.67383 11.8032 6.90234 11.7944 7.25391L11.5308 16.4473C11.522 16.79 11.7593 17.0361 12.1372 17.0361Z" fill="white"/>
</svg>
