<svg width="22" height="22" viewBox="0 0 22 22" fill="none" xmlns="http://www.w3.org/2000/svg">
<path d="M0 11C0 17.0683 4.72621 22 10.5417 22C16.3387 22 21.0833 17.0683 21.0833 11C21.0833 4.97023 16.3387 0 10.5417 0C9.69242 0 9.13857 0.597198 9.13857 1.4641V4.98949C9.13857 5.77933 9.69242 6.3958 10.4494 6.3958C11.1878 6.3958 11.7417 5.76007 11.7417 4.98949V3.14011C15.3971 3.69877 18.1479 7.01226 18.1479 11C18.1479 15.4116 14.7509 18.9562 10.5417 18.9562C6.31392 18.9562 2.8985 15.4116 2.91696 11C2.91696 9.15061 3.5262 7.37828 4.67083 5.95271C5.18775 5.2014 5.18775 4.41156 4.6339 3.7951C4.0062 3.14011 3.02773 3.25569 2.43695 4.04553C0.867703 5.99124 0 8.49562 0 11ZM12.2586 12.7916C13.1448 11.8284 12.9786 10.3835 11.8894 9.67075L7.23701 6.51138C6.44316 5.99124 5.70468 6.68476 6.22161 7.55166L9.28627 12.4063C9.98781 13.5429 11.3355 13.7163 12.2586 12.7916Z" fill="white"/>
</svg>
