<svg width="35" height="34" viewBox="0 0 35 34" fill="none" xmlns="http://www.w3.org/2000/svg">
<g filter="url(#filter0_d_4395_75)">
<path d="M8.36297 29.5H26.6238C29.5015 29.5 31 28.0019 31 25.1394V8.86062C31 5.99813 29.5015 4.5 26.6238 4.5H8.36297C5.49853 4.5 4 5.98475 4 8.86062V25.1394C4 28.0019 5.49853 29.5 8.36297 29.5ZM8.34971 26.8381C7.24902 26.8381 6.639 26.263 6.639 25.0859V12.7798C6.639 11.6027 7.24902 11.0276 8.34971 11.0276H26.637C27.7377 11.0276 28.3477 11.6027 28.3477 12.7798V25.0859C28.3477 26.263 27.7377 26.8381 26.637 26.8381H8.34971ZM10.6174 15.8296H24.3959C24.8733 15.8296 25.2313 15.4551 25.2313 14.9601C25.2313 14.492 24.8733 14.1308 24.3959 14.1308H10.6174C10.1267 14.1308 9.76866 14.492 9.76866 14.9601C9.76866 15.4551 10.1267 15.8296 10.6174 15.8296ZM10.6174 19.7755H24.3959C24.8733 19.7755 25.2313 19.4144 25.2313 18.9462C25.2313 18.4647 24.8733 18.0768 24.3959 18.0768H10.6174C10.1267 18.0768 9.76866 18.4647 9.76866 18.9462C9.76866 19.4144 10.1267 19.7755 10.6174 19.7755ZM10.6174 23.7215H19.3168C19.7942 23.7215 20.1523 23.3604 20.1523 22.8922C20.1523 22.4106 19.7942 22.0361 19.3168 22.0361H10.6174C10.1267 22.0361 9.76866 22.4106 9.76866 22.8922C9.76866 23.3604 10.1267 23.7215 10.6174 23.7215Z" fill="white"/>
</g>
<defs>
<filter id="filter0_d_4395_75" x="0" y="0.5" width="35" height="33" filterUnits="userSpaceOnUse" color-interpolation-filters="sRGB">
<feFlood flood-opacity="0" result="BackgroundImageFix"/>
<feColorMatrix in="SourceAlpha" type="matrix" values="0 0 0 0 0 0 0 0 0 0 0 0 0 0 0 0 0 0 127 0" result="hardAlpha"/>
<feOffset/>
<feGaussianBlur stdDeviation="2"/>
<feComposite in2="hardAlpha" operator="out"/>
<feColorMatrix type="matrix" values="0 0 0 0 0 0 0 0 0 0 0 0 0 0 0 0 0 0 0.5 0"/>
<feBlend mode="normal" in2="BackgroundImageFix" result="effect1_dropShadow_4395_75"/>
<feBlend mode="normal" in="SourceGraphic" in2="effect1_dropShadow_4395_75" result="shape"/>
</filter>
</defs>
</svg>
