<svg width="21" height="16" viewBox="0 0 21 16" fill="none" xmlns="http://www.w3.org/2000/svg">
<path d="M20.5 0.00896646C19.6294 0.611275 18.6656 1.07195 17.6455 1.37324C17.0979 0.755757 16.3703 0.318104 15.5609 0.119469C14.7516 -0.0791667 13.8995 -0.0292013 13.1201 0.262607C12.3406 0.554416 11.6713 1.07399 11.2027 1.75105C10.7341 2.42812 10.4888 3.23001 10.5 4.04827V4.93995C8.90239 4.98058 7.31934 4.63305 5.89183 3.92829C4.46431 3.22354 3.23665 2.18345 2.31818 0.900645C2.31818 0.900645 -1.31818 8.92575 6.86364 12.4925C4.99139 13.739 2.76105 14.364 0.5 14.2758C8.68182 18.7342 18.6818 14.2758 18.6818 4.02152C18.681 3.77315 18.6566 3.52539 18.6091 3.28143C19.5369 2.38395 20.1917 1.25082 20.5 0.00896646Z" fill="white"/>
</svg>
