<svg width="95" height="95" viewBox="0 0 95 95" fill="none" xmlns="http://www.w3.org/2000/svg">
<path d="M95 47.5C95 73.7335 73.7335 95 47.5 95C21.2665 95 0 73.7335 0 47.5C0 21.2665 21.2665 0 47.5 0C73.7335 0 95 21.2665 95 47.5Z" fill="url(#paint0_linear_872_178)"/>
<g filter="url(#filter0_d_872_178)">
<path d="M32.3203 65.4582C33.6255 65.4582 34.6406 64.4698 34.6406 63.1658V32.2924C34.6406 30.9885 33.6255 30 32.3203 30C31.0151 30 30 30.9885 30 32.2924V63.1658C30 64.4698 31.0151 65.4582 32.3203 65.4582ZM44.2326 64.659C45.1442 64.659 45.9314 64.3856 46.8223 63.8599L64.0573 51.1992C65.611 50.2739 66.419 49.1382 66.419 47.7081C66.419 46.299 65.6318 45.2054 64.0573 44.259L46.8223 31.5984C45.9107 31.0726 45.1442 30.7992 44.2119 30.7992C42.3888 30.7992 40.8765 32.1872 40.8765 34.753V60.7052C40.8765 63.271 42.4095 64.659 44.2326 64.659ZM45.4549 59.8009C45.1856 59.8009 44.9784 59.6326 44.9784 59.2541V36.2041C44.9784 35.8256 45.1856 35.6573 45.4549 35.6573C45.5792 35.6573 45.7243 35.6994 45.9107 35.8045L60.929 47.2244C61.1776 47.3506 61.3019 47.4767 61.3019 47.7291C61.3019 47.9604 61.1776 48.1077 60.929 48.2339L45.9107 59.6537C45.7243 59.7588 45.5792 59.8009 45.4549 59.8009Z" fill="white"/>
</g>
<defs>
<filter id="filter0_d_872_178" x="26" y="30" width="44.4189" height="43.458" filterUnits="userSpaceOnUse" color-interpolation-filters="sRGB">
<feFlood flood-opacity="0" result="BackgroundImageFix"/>
<feColorMatrix in="SourceAlpha" type="matrix" values="0 0 0 0 0 0 0 0 0 0 0 0 0 0 0 0 0 0 127 0" result="hardAlpha"/>
<feOffset dy="4"/>
<feGaussianBlur stdDeviation="2"/>
<feComposite in2="hardAlpha" operator="out"/>
<feColorMatrix type="matrix" values="0 0 0 0 0 0 0 0 0 0 0 0 0 0 0 0 0 0 0.25 0"/>
<feBlend mode="normal" in2="BackgroundImageFix" result="effect1_dropShadow_872_178"/>
<feBlend mode="normal" in="SourceGraphic" in2="effect1_dropShadow_872_178" result="shape"/>
</filter>
<linearGradient id="paint0_linear_872_178" x1="47.5" y1="0" x2="47.5" y2="95" gradientUnits="userSpaceOnUse">
<stop stop-color="#0DB1FF"/>
<stop offset="1" stop-color="#2270E7"/>
</linearGradient>
</defs>
</svg>
