<svg width="96" height="95" viewBox="0 0 96 95" fill="none" xmlns="http://www.w3.org/2000/svg">
<circle cx="48" cy="47.5" r="47.5" fill="url(#paint0_linear_872_112)"/>
<g filter="url(#filter0_d_872_112)">
<path d="M35.5729 47.6423C36.184 47.5497 36.7767 47.4941 37.4064 47.4941C38.0175 47.4941 38.6287 47.5497 39.2583 47.6608V32.0486C39.2583 30.3633 40.1473 29.4188 41.9437 29.4188H49.7961V39.4936C49.7961 42.179 51.111 43.4753 53.7779 43.4753H63.7045V59.5135C63.7045 61.2173 62.8155 62.1433 61.0191 62.1433H49.259C49.0368 63.4767 48.5368 64.7361 47.8515 65.8473H61.3525C65.3342 65.8473 67.3899 63.7545 67.3899 59.7543V42.9383C67.3899 40.3455 67.0566 39.1602 65.4453 37.512L55.7595 27.6779C54.1853 26.0852 52.8889 25.7148 50.5554 25.7148H41.6104C37.6471 25.7148 35.5729 27.8076 35.5729 31.8264V47.6423ZM53.0186 39.1417V29.9003L63.2045 40.2344H54.1297C53.3519 40.2344 53.0186 39.901 53.0186 39.1417ZM36.5915 69.4586H38.2027C38.8324 69.4586 39.3324 69.0697 39.4621 68.44L39.9065 66.6436C40.1288 66.5881 40.388 66.4769 40.6103 66.3658L42.1845 67.3103C42.703 67.6437 43.3142 67.6252 43.7957 67.1622L44.8884 66.0325C45.3328 65.588 45.3699 64.9768 45.018 64.4027L44.092 62.8471C44.2402 62.6063 44.2957 62.4211 44.3883 62.1804L46.1662 61.7544C46.7959 61.6062 47.2033 61.1247 47.2033 60.4765V58.9023C47.2033 58.2912 46.7774 57.8097 46.1662 57.6615L44.4068 57.2356C44.3142 56.9578 44.2031 56.754 44.1105 56.5688L45.0921 54.9576C45.4254 54.4206 45.3699 53.7538 44.9254 53.3464L43.7772 52.2352C43.3327 51.8093 42.7215 51.6981 42.203 52.013L40.6103 53.013C40.351 52.8834 40.1288 52.8093 39.9065 52.7352L39.4621 50.9203C39.3139 50.3092 38.8324 49.9017 38.2027 49.9017H36.5915C35.9618 49.9017 35.4618 50.3277 35.3321 50.9203L34.9247 52.7167C34.6284 52.8093 34.4061 52.8834 34.1654 53.013L32.5912 52.013C32.0912 51.7167 31.4615 51.7907 31.017 52.2352L29.9058 53.3464C29.4614 53.7724 29.3502 54.4206 29.6836 54.9576L30.6837 56.5688C30.5911 56.754 30.4985 56.9948 30.3873 57.2356L28.628 57.6615C28.0168 57.8097 27.6094 58.3097 27.6094 58.9023V60.4765C27.6094 61.1247 28.0168 61.6062 28.628 61.7544L30.4244 62.1804C30.517 62.4211 30.6096 62.6063 30.7022 62.8471L29.7762 64.4212C29.4428 64.9768 29.4799 65.6065 29.9244 66.0325L31.017 67.1622C31.4615 67.6252 32.0912 67.6437 32.6097 67.3103L34.2024 66.3658C34.4617 66.4955 34.6839 66.5881 34.9247 66.6436L35.3321 68.44C35.4618 69.0512 35.9618 69.4586 36.5915 69.4586ZM37.4064 62.7545C35.7025 62.7545 34.3506 61.384 34.3506 59.6802C34.3506 58.0134 35.7025 56.6244 37.4064 56.6059C39.0731 56.5874 40.4806 58.0134 40.4806 59.6802C40.4806 61.384 39.0731 62.7545 37.4064 62.7545Z" fill="white"/>
</g>
<defs>
<filter id="filter0_d_872_112" x="23.6094" y="25.7148" width="47.7803" height="51.7437" filterUnits="userSpaceOnUse" color-interpolation-filters="sRGB">
<feFlood flood-opacity="0" result="BackgroundImageFix"/>
<feColorMatrix in="SourceAlpha" type="matrix" values="0 0 0 0 0 0 0 0 0 0 0 0 0 0 0 0 0 0 127 0" result="hardAlpha"/>
<feOffset dy="4"/>
<feGaussianBlur stdDeviation="2"/>
<feComposite in2="hardAlpha" operator="out"/>
<feColorMatrix type="matrix" values="0 0 0 0 0 0 0 0 0 0 0 0 0 0 0 0 0 0 0.25 0"/>
<feBlend mode="normal" in2="BackgroundImageFix" result="effect1_dropShadow_872_112"/>
<feBlend mode="normal" in="SourceGraphic" in2="effect1_dropShadow_872_112" result="shape"/>
</filter>
<linearGradient id="paint0_linear_872_112" x1="48" y1="95" x2="48" y2="-3.91796e-07" gradientUnits="userSpaceOnUse">
<stop stop-color="#226FE6"/>
<stop offset="1" stop-color="#0CB2FF"/>
</linearGradient>
</defs>
</svg>
