<svg width="96" height="95" viewBox="0 0 96 95" fill="none" xmlns="http://www.w3.org/2000/svg">
<circle cx="48" cy="47.5" r="47.5" fill="#292929"/>
<g filter="url(#filter0_d_158_4)">
<path d="M48.3837 71.29C48.8018 71.29 49.429 71.1506 50.0329 70.8254C63.3892 63.555 68.0348 60.1869 68.0348 51.7318V34.1945C68.0348 31.4071 66.9663 30.4083 64.6203 29.4095C62.0652 28.3177 53.3778 25.2981 50.8691 24.4386C50.0794 24.1831 49.1967 24.0205 48.3837 24.0205C47.594 24.0205 46.6881 24.2296 45.9215 24.4386C43.4129 25.1587 34.7255 28.341 32.1704 29.4095C29.8244 30.385 28.7559 31.4071 28.7559 34.1945V51.7318C28.7559 60.1869 33.4015 63.5085 46.7577 70.8254C47.3617 71.1506 47.9888 71.29 48.3837 71.29ZM48.3837 66.3656C48.0585 66.3656 47.7333 66.2494 47.0597 65.8313C36.4676 59.3739 33.1692 57.6318 33.1692 50.8723V34.9378C33.1692 34.1016 33.3318 33.7764 33.9822 33.4976C37.42 32.1272 44.0865 29.9205 47.1526 28.7126C47.6869 28.5268 48.0585 28.4571 48.3837 28.4571C48.7321 28.4571 49.1038 28.5268 49.638 28.7126C52.7042 29.9205 59.3242 32.2665 62.7852 33.4976C63.4588 33.7531 63.6214 34.1016 63.6214 34.9378V50.8723C63.6214 57.6782 60.1837 59.5133 49.731 65.8313C49.0573 66.2494 48.7321 66.3656 48.3837 66.3656ZM40.068 55.1696C40.068 56.9349 40.8578 57.7479 42.507 57.7479H54.2837C55.9329 57.7479 56.7227 56.9349 56.7227 55.1696V46.1106C56.7227 44.531 56.0723 43.7181 54.7715 43.5787V40.9771C54.7715 36.7031 52.1932 33.8461 48.4069 33.8461C44.5975 33.8461 42.0424 36.7031 42.0424 40.9771V43.5787C40.7184 43.7181 40.068 44.531 40.068 46.1106V55.1696ZM44.7833 43.5322V40.7448C44.7833 38.1897 46.2235 36.4941 48.4069 36.4941C50.5904 36.4941 52.0306 38.1897 52.0306 40.7448V43.5322H44.7833Z" fill="white"/>
</g>
<defs>
<filter id="filter0_d_158_4" x="24.7559" y="24.0205" width="47.2788" height="55.2695" filterUnits="userSpaceOnUse" color-interpolation-filters="sRGB">
<feFlood flood-opacity="0" result="BackgroundImageFix"/>
<feColorMatrix in="SourceAlpha" type="matrix" values="0 0 0 0 0 0 0 0 0 0 0 0 0 0 0 0 0 0 127 0" result="hardAlpha"/>
<feOffset dy="4"/>
<feGaussianBlur stdDeviation="2"/>
<feComposite in2="hardAlpha" operator="out"/>
<feColorMatrix type="matrix" values="0 0 0 0 0 0 0 0 0 0 0 0 0 0 0 0 0 0 0.25 0"/>
<feBlend mode="normal" in2="BackgroundImageFix" result="effect1_dropShadow_158_4"/>
<feBlend mode="normal" in="SourceGraphic" in2="effect1_dropShadow_158_4" result="shape"/>
</filter>
</defs>
</svg>
