<svg width="95" height="95" viewBox="0 0 95 95" fill="none" xmlns="http://www.w3.org/2000/svg">
<path d="M95 47.5C95 73.7335 73.7335 95 47.5 95C21.2665 95 0 73.7335 0 47.5C0 21.2665 21.2665 0 47.5 0C73.7335 0 95 21.2665 95 47.5Z" fill="url(#paint0_linear_872_170)"/>
<g filter="url(#filter0_d_872_170)">
<path d="M64.5787 46.5626C70.2447 46.5626 75 41.8956 75 36.2713C75 30.647 70.3054 26 64.5787 26C58.8723 26 54.1575 30.647 54.1575 36.2713C54.1575 41.9156 58.8723 46.5626 64.5787 46.5626ZM36.5324 58.9879H60.0865C61.0375 58.9879 61.9077 58.25 61.9077 57.1929C61.9077 56.1558 61.0375 55.4179 60.0865 55.4179H36.9978C36.0265 55.4179 35.4194 54.7597 35.2778 53.7426L34.9742 51.6684H60.2483C62.2314 51.6684 63.5467 50.8905 64.3561 49.3748C62.2517 49.295 60.3091 48.6568 58.6295 47.5997C58.3664 47.9188 58.0224 48.0784 57.5166 48.0784L34.4481 48.0983L32.89 37.5677H51.3852C51.2233 36.4508 51.2638 35.1146 51.4662 33.9977H32.3639L32.0603 31.8437C31.7973 30.1085 31.089 29.231 28.8429 29.231H21.9021C20.8904 29.231 20 30.1085 20 31.1257C20 32.1628 20.8904 33.0404 21.9021 33.0404H28.2358L31.3723 54.1415C31.8175 57.1531 33.4363 58.9879 36.5324 58.9879ZM57.9617 36.2713C57.9617 35.4536 58.5283 34.9151 59.358 34.9151H63.1825V31.1456C63.1825 30.3279 63.7288 29.7695 64.5787 29.7695C65.4286 29.7695 65.975 30.3279 65.975 31.1456V34.9151H69.7995C70.6291 34.9151 71.1957 35.4536 71.1957 36.2713C71.1957 37.109 70.6291 37.6475 69.7995 37.6475H65.975V41.4369C65.975 42.2546 65.4286 42.7931 64.5787 42.7931C63.7288 42.7931 63.1825 42.2546 63.1825 41.4369V37.6475H59.358C58.5283 37.6475 57.9617 37.109 57.9617 36.2713ZM38.1917 69C40.1545 69 41.7329 67.4443 41.7329 65.5097C41.7329 63.5751 40.1545 62.0195 38.1917 62.0195C36.2288 62.0195 34.6505 63.5751 34.6505 65.5097C34.6505 67.4443 36.2288 69 38.1917 69ZM56.8893 69C58.8521 69 60.4102 67.4443 60.4102 65.5097C60.4102 63.5751 58.8521 62.0195 56.8893 62.0195C54.9264 62.0195 53.3278 63.5751 53.3278 65.5097C53.3278 67.4443 54.9264 69 56.8893 69Z" fill="white"/>
</g>
<defs>
<filter id="filter0_d_872_170" x="16" y="26" width="63" height="51" filterUnits="userSpaceOnUse" color-interpolation-filters="sRGB">
<feFlood flood-opacity="0" result="BackgroundImageFix"/>
<feColorMatrix in="SourceAlpha" type="matrix" values="0 0 0 0 0 0 0 0 0 0 0 0 0 0 0 0 0 0 127 0" result="hardAlpha"/>
<feOffset dy="4"/>
<feGaussianBlur stdDeviation="2"/>
<feComposite in2="hardAlpha" operator="out"/>
<feColorMatrix type="matrix" values="0 0 0 0 0 0 0 0 0 0 0 0 0 0 0 0 0 0 0.25 0"/>
<feBlend mode="normal" in2="BackgroundImageFix" result="effect1_dropShadow_872_170"/>
<feBlend mode="normal" in="SourceGraphic" in2="effect1_dropShadow_872_170" result="shape"/>
</filter>
<linearGradient id="paint0_linear_872_170" x1="47.5" y1="0" x2="47.5" y2="95" gradientUnits="userSpaceOnUse">
<stop stop-color="#0DB1FF"/>
<stop offset="1" stop-color="#2270E7"/>
</linearGradient>
</defs>
</svg>
