<svg width="38" height="38" viewBox="0 0 38 38" fill="none" xmlns="http://www.w3.org/2000/svg">
<rect x="0.5" y="0.5" width="37" height="37" rx="18.5" fill="white"/>
<rect x="0.5" y="0.5" width="37" height="37" rx="18.5" stroke="black"/>
<g clip-path="url(#clip0_3802_1753)">
<path d="M25 14.5H23.365C23.4475 14.2675 23.5 14.0125 23.5 13.75C23.5 12.505 22.495 11.5 21.25 11.5C20.4625 11.5 19.78 11.905 19.375 12.5125L19 13.015L18.625 12.505C18.22 11.905 17.5375 11.5 16.75 11.5C15.505 11.5 14.5 12.505 14.5 13.75C14.5 14.0125 14.5525 14.2675 14.635 14.5H13C12.1675 14.5 11.5075 15.1675 11.5075 16L11.5 24.25C11.5 25.0825 12.1675 25.75 13 25.75H25C25.8325 25.75 26.5 25.0825 26.5 24.25V16C26.5 15.1675 25.8325 14.5 25 14.5ZM21.25 13C21.6625 13 22 13.3375 22 13.75C22 14.1625 21.6625 14.5 21.25 14.5C20.8375 14.5 20.5 14.1625 20.5 13.75C20.5 13.3375 20.8375 13 21.25 13ZM16.75 13C17.1625 13 17.5 13.3375 17.5 13.75C17.5 14.1625 17.1625 14.5 16.75 14.5C16.3375 14.5 16 14.1625 16 13.75C16 13.3375 16.3375 13 16.75 13ZM25 24.25H13V22.75H25V24.25ZM25 20.5H13V16.75C13 16.3375 13.3375 16 13.75 16H16.81L15.7 17.515C15.4525 17.8525 15.5275 18.325 15.865 18.565C16.195 18.805 16.6675 18.73 16.9075 18.4L19 15.55L21.0925 18.4C21.3325 18.73 21.805 18.805 22.135 18.565C22.4725 18.325 22.5475 17.8525 22.3 17.515L21.19 16H24.25C24.6625 16 25 16.3375 25 16.75V20.5Z" fill="#323232"/>
</g>
<defs>
<clipPath id="clip0_3802_1753">
<rect width="18" height="18" fill="white" transform="translate(10 10)"/>
</clipPath>
</defs>
</svg>
