<svg width="93" height="65" viewBox="0 0 93 65" fill="none" xmlns="http://www.w3.org/2000/svg">
<path d="M48.8076 32.8563C48.8076 49.891 37.9011 63.2849 24.9038 63.2849C11.9065 63.2849 1 49.891 1 32.8563C1 15.8216 11.9065 2.42773 24.9038 2.42773C37.9011 2.42773 48.8076 15.8216 48.8076 32.8563Z" fill="white" stroke="black" stroke-width="2"/>
<path d="M91.2237 31.4286C91.2237 48.4633 80.3171 61.8571 67.3198 61.8571C54.3226 61.8571 43.416 48.4633 43.416 31.4286C43.416 14.3939 54.3226 1 67.3198 1C80.3171 1 91.2237 14.3939 91.2237 31.4286Z" fill="white" stroke="black" stroke-width="2"/>
<ellipse cx="28.7603" cy="45.1429" rx="9.64019" ry="12.1429" fill="black"/>
<ellipse cx="70.6401" cy="44.1423" rx="9.64019" ry="12.1429" transform="rotate(180 70.6401 44.1423)" fill="black"/>
</svg>
